<?xml version="1.0" encoding="UTF-8"?>
<svg version="1.1" xmlns="http://www.w3.org/2000/svg" width="600" height="480">
<path d="M0 0 C198 0 396 0 600 0 C600 158.4 600 316.8 600 480 C402 480 204 480 0 480 C0 321.6 0 163.2 0 0 Z " fill="#000000" transform="translate(0,0)"/>
<path d="M0 0 C0.62052246 0.24637207 1.24104492 0.49274414 1.88037109 0.74658203 C11.68506835 4.7600646 18.7225552 10.53762761 26 18 C26.66644531 18.65742188 27.33289063 19.31484375 28.01953125 19.9921875 C43.82041211 36.61343012 48.70422502 59.80011131 48.30859375 81.9765625 C47.63416772 99.53402681 42.75300233 123.30186209 31 137 C25.27740677 141.7671861 20.04815207 144.45823538 12.5390625 144.3359375 C6.1495412 143.49055468 0.68804792 140.34890753 -3.375 135.375 C-4.30010271 133.94792394 -5.17516433 132.48728182 -6 131 C-6.4125 130.26652344 -6.825 129.53304687 -7.25 128.77734375 C-13.01356226 116.14953894 -11.09315497 100.07542949 -6.97265625 87.2265625 C-5.94657035 83.82275948 -5.4238982 80.52504818 -5 77 C-8.14191424 78.53604696 -11.08596738 80.05731159 -14 82 C-14.054348 79.9377952 -14.09294961 77.87517184 -14.125 75.8125 C-14.14820313 74.66394531 -14.17140625 73.51539063 -14.1953125 72.33203125 C-13.93738682 67.93181909 -13.13095049 65.13095049 -10 62 C-6.34638504 62.15885282 -4.47979177 62.60859093 -1.625 64.9375 C0 67 0 67 0 69 C0.99 68.67 1.98 68.34 3 68 C3.55114647 61.38624232 2.90498293 56.48088108 -1 51 C-6.93911776 44.17867907 -15.20422901 41.15964145 -24 40 C-33.48533655 39.35061108 -41.40644029 39.78876094 -50 44 C-50.85207031 44.4125 -51.70414062 44.825 -52.58203125 45.25 C-60.32224531 49.43518487 -67.38872377 55.83701102 -71 64 C-69.68 64.33 -68.36 64.66 -67 65 C-66.375 67.375 -66.375 67.375 -66 70 C-66.66 70.66 -67.32 71.32 -68 72 C-67.21625 72.28875 -66.4325 72.5775 -65.625 72.875 C-63 74 -63 74 -61 76 C-61 77.32 -61 78.64 -61 80 C-64.8063457 79.32829194 -68.35206816 78.27253436 -72 77 C-71.505 75.515 -71.505 75.515 -71 74 C-72.65 74 -74.3 74 -76 74 C-76.99 76.31 -77.98 78.62 -79 81 C-79.53625 80.71125 -80.0725 80.4225 -80.625 80.125 C-83.35234445 78.8331 -86.13302341 77.93471292 -89 77 C-88.57847656 78.08925781 -88.15695313 79.17851562 -87.72265625 80.30078125 C-82.99173864 94.02817444 -82.28061438 107.2881307 -82 121.6875 C-81.97817657 122.66417633 -81.95635315 123.64085266 -81.93386841 124.64712524 C-81.87729121 127.45622303 -81.83979555 130.26469589 -81.8125 133.07421875 C-81.79936264 133.9296225 -81.78622528 134.78502625 -81.77268982 135.66635132 C-81.76480193 141.64720289 -81.76480193 141.64720289 -84 145 C-88.90631194 144.57945898 -90.78435297 142.60779911 -94 139 C-94.45117188 138.53980469 -94.90234375 138.07960937 -95.3671875 137.60546875 C-109.61856142 122.39116416 -116.74674287 100.03211044 -116.24609375 79.5703125 C-115.21123198 55.56769776 -105.87230576 34.13743808 -88.53173828 17.39501953 C-64.88973741 -4.13676131 -30.0232201 -12.28046551 0 0 Z " fill="#FC155F" transform="translate(334,116)"/>
<path d="M0 0 C5.94 0 11.88 0 18 0 C20.14285714 12.05357143 20.14285714 12.05357143 20 18 C20.66 18 21.32 18 22 18 C22.12375 16.700625 22.2475 15.40125 22.375 14.0625 C22.89992248 9.2697295 23.88378311 4.68811096 25 0 C30.94 0 36.88 0 43 0 C43 11.22 43 22.44 43 34 C39.37 34 35.74 34 32 34 C32 28.06 32 22.12 32 16 C31.34 16 30.68 16 30 16 C29.95101562 16.6290625 29.90203125 17.258125 29.8515625 17.90625 C29.36564801 23.46913314 28.49446374 28.61993052 27 34 C23.37 34 19.74 34 16 34 C15.52397762 32.33392168 15.04881636 30.66759225 14.578125 29 C14.03964092 27.13713616 13.458933 25.28662115 12.875 23.4375 C12.03227313 20.12678729 11.83432049 17.39642988 12 14 C11.34 14 10.68 14 10 14 C10 20.27 10 26.54 10 33 C6.7 33 3.4 33 0 33 C0 22.11 0 11.22 0 0 Z " fill="#F91B61" transform="translate(513,291)"/>
<path d="M0 0 C4.91532537 2.24207824 7.79012798 5.07028549 10 10 C10.70721618 16.01133754 11.22226037 22.5675345 8.4375 28.125 C4.5709215 32.68557977 1.73392905 34.66933776 -4.1328125 35.37890625 C-9.16203918 35.55647576 -12.94819424 35.47977105 -17.5625 33.375 C-22.73614265 28.33401486 -24.26241384 25.22260685 -24.4375 17.9375 C-24.43124844 12.17981431 -23.57561992 8.59528114 -19.46484375 4.453125 C-13.01120702 -0.63055815 -8.14542002 -0.70441513 0 0 Z " fill="#F5155C" transform="translate(493,290)"/>
<path d="M0 0 C4.0862569 1.78629992 7.01416311 4.0216098 9.0234375 8.15625 C10.67922283 13.99836049 10.39390828 20.05789311 8.51953125 25.78515625 C5.39408874 30.05659434 2.01838732 33.38838868 -3.35546875 34.34765625 C-8.71952978 34.84192773 -13.00527836 35.04686199 -17.85546875 32.53515625 C-18.68046875 31.81328125 -19.50546875 31.09140625 -20.35546875 30.34765625 C-20.93296875 29.87328125 -21.51046875 29.39890625 -22.10546875 28.91015625 C-25.12046363 25.14141265 -25.75038486 21.31738773 -25.60546875 16.53515625 C-24.99666642 11.2081359 -23.74924871 6.74143621 -19.91796875 2.91015625 C-13.42604132 -1.04833608 -7.51610479 -2.08157463 0 0 Z " fill="#F7155D" transform="translate(209.35546875,290.65234375)"/>
<path d="M0 0 C5.28 0 10.56 0 16 0 C21.22321429 12.05357143 21.22321429 12.05357143 22 18 C22.66 18 23.32 18 24 18 C24 12.06 24 6.12 24 0 C27.3 0 30.6 0 34 0 C34 10.89 34 21.78 34 33 C29.05 33 24.1 33 19 33 C17.73046875 29.94010417 16.4609375 26.88020833 15.19140625 23.8203125 C14.50456537 22.19441376 13.78934113 20.57868226 13 19 C12.67 23.95 12.34 28.9 12 34 C3.50390625 34.09765625 3.50390625 34.09765625 1 34 C0 33 0 33 -0.11352539 29.85717773 C-0.11336633 28.46597303 -0.10767506 27.07476239 -0.09765625 25.68359375 C-0.0962413 24.95253922 -0.09482635 24.22148468 -0.09336853 23.46827698 C-0.08775408 21.12464368 -0.07519922 18.78110461 -0.0625 16.4375 C-0.05748686 14.85221492 -0.05292363 13.26692834 -0.04882812 11.68164062 C-0.03862921 7.78769457 -0.01905687 3.89395323 0 0 Z " fill="#FC155F" transform="translate(227,291)"/>
<path d="M0 0 C3.96 0 7.92 0 12 0 C13 1 13 1 13.09765625 3.28515625 C13.08605469 4.20167969 13.07445313 5.11820312 13.0625 6.0625 C13.05347656 6.98160156 13.04445313 7.90070313 13.03515625 8.84765625 C13.02355469 9.55792969 13.01195313 10.26820313 13 11 C14.98 11 16.96 11 19 11 C19 7.37 19 3.74 19 0 C23.29 0 27.58 0 32 0 C32 11.22 32 22.44 32 34 C27.38 34 22.76 34 18 34 C18 30.04 18 26.08 18 22 C16.35 22 14.7 22 13 22 C13 25.96 13 29.92 13 34 C8.71 34 4.42 34 0 34 C0 22.78 0 11.56 0 0 Z " fill="#F7165E" transform="translate(87,291)"/>
<path d="M0 0 C5.94 0 11.88 0 18 0 C19.4297884 4.19745024 20.85578501 8.39581472 22.27246094 12.59765625 C22.75531504 14.02612663 23.24032259 15.453871 23.72753906 16.88085938 C24.42823134 18.93431674 25.12109036 20.9902764 25.8125 23.046875 C26.23144531 24.28276367 26.65039062 25.51865234 27.08203125 26.79199219 C28 30 28 30 28 34 C25.85423363 34.02685938 23.70837355 34.04633088 21.5625 34.0625 C20.36753906 34.07410156 19.17257812 34.08570313 17.94140625 34.09765625 C15 34 15 34 14 33 C14 31.35 14 29.7 14 28 C10.7 28 7.4 28 4 28 C3.67 29.98 3.34 31.96 3 34 C-1.29 34 -5.58 34 -10 34 C-8.48020523 26.45701858 -6.26246686 19.24753545 -3.875 11.9375 C-3.50246094 10.78572266 -3.12992187 9.63394531 -2.74609375 8.44726562 C-1.83438653 5.63032408 -0.91770104 2.81499459 0 0 Z " fill="#F5155C" transform="translate(373,291)"/>
<path d="M0 0 C4.29 0 8.58 0 13 0 C13.33 3.63 13.66 7.26 14 11 C15.65 7.37 17.3 3.74 19 0 C23.62 0 28.24 0 33 0 C32.48308594 0.95261719 31.96617188 1.90523438 31.43359375 2.88671875 C30.76748863 4.15325664 30.10216485 5.42020568 29.4375 6.6875 C29.09525391 7.31333984 28.75300781 7.93917969 28.40039062 8.58398438 C26.97984694 11.32462927 25.9866911 13.45267137 26.0625 16.5703125 C27.25827091 19.66935212 28.82287631 22.35841501 30.5625 25.1875 C34 30.79678068 34 30.79678068 34 33 C29.38 33 24.76 33 20 33 C18.02 29.04 16.04 25.08 14 21 C13.67 25.29 13.34 29.58 13 34 C8.71 34 4.42 34 0 34 C0 22.78 0 11.56 0 0 Z " fill="#FB155E" transform="translate(45,291)"/>
<path d="M0 0 C4.08027654 2.85619358 5.27710186 4.53419194 6.1875 9.5 C6.3421875 11.10875 6.3421875 11.10875 6.5 12.75 C2.54 12.75 -1.42 12.75 -5.5 12.75 C-5.83 11.1 -6.16 9.45 -6.5 7.75 C-8.47536745 8.09786708 -8.47536745 8.09786708 -10.5 8.75 C-12.00156874 11.75313748 -11.59281204 14.54067522 -11.5625 17.875 C-11.55347656 19.15632813 -11.54445313 20.43765625 -11.53515625 21.7578125 C-11.52355469 22.74523437 -11.51195312 23.73265625 -11.5 24.75 C-9.51508358 24.48323796 -9.51508358 24.48323796 -7.5 23.75 C-7.17 22.76 -6.84 21.77 -6.5 20.75 C-2.21 20.75 2.08 20.75 6.5 20.75 C5.3 27.95 5.3 27.95 1.5 31.75 C-4.25562911 34.62279219 -10.21525433 34.36739315 -16.5 33.75 C-21.34423738 31.7103211 -23.71571636 28.79832366 -25.8046875 24.09375 C-27.48266582 18.43764331 -27.62515332 12.25422042 -25 6.875 C-19.02172344 -1.76954624 -9.577796 -3.42064143 0 0 Z " fill="#F5175E" transform="translate(455.5,291.25)"/>
<path d="M0 0 C4.62 0 9.24 0 14 0 C14.74869792 2.27864583 15.49739583 4.55729167 16.24609375 6.8359375 C16.95179729 9.01031799 16.95179729 9.01031799 18 11 C19.65 7.37 21.3 3.74 23 0 C26.96 0 30.92 0 35 0 C33.6389901 4.54125917 31.74823346 8.37058906 29.4375 12.5 C25.55407797 19.77759404 25.0849032 25.67948613 25 34 C20.38 34 15.76 34 11 34 C10.7525 30.7825 10.7525 30.7825 10.5 27.5 C9.64704003 19.53429665 6.58434449 13.22397636 2.77734375 6.265625 C1 3 1 3 0 0 Z " fill="#F6155C" transform="translate(328,291)"/>
<path d="M0 0 C4.29 0 8.58 0 13 0 C13.08093399 4.22955053 13.1404757 8.45755211 13.1875 12.6875 C13.21263672 13.88568359 13.23777344 15.08386719 13.26367188 16.31835938 C13.27333984 17.47529297 13.28300781 18.63222656 13.29296875 19.82421875 C13.3086792 20.88729248 13.32438965 21.95036621 13.34057617 23.0456543 C12.94987126 26.43484439 11.9986501 28.26184336 10 31 C4.58001504 35.23407372 -1.42454193 34.76727428 -8 34 C-11.24161379 32.74232471 -13.40736242 31.18527516 -15 28 C-15.039992 26.00039988 -15.04346799 23.99952758 -15 22 C-11.37 22 -7.74 22 -4 22 C-4 22.99 -4 23.98 -4 25 C-2.68 25 -1.36 25 0 25 C0 16.75 0 8.5 0 0 Z " fill="#FC155E" transform="translate(284,291)"/>
<path d="M0 0 C4.29 0 8.58 0 13 0 C13 7.92 13 15.84 13 24 C16.96 24 20.92 24 25 24 C25 27.3 25 30.6 25 34 C16.75 34 8.5 34 0 34 C0 22.78 0 11.56 0 0 Z " fill="#F4155C" transform="translate(153,291)"/>
<path d="M0 0 C4.62 0 9.24 0 14 0 C14 11.22 14 22.44 14 34 C9.38 34 4.76 34 0 34 C0 22.78 0 11.56 0 0 Z " fill="#F1145A" transform="translate(307,291)"/>
<path d="M0 0 C4.29 0 8.58 0 13 0 C13 11.22 13 22.44 13 34 C8.38 34 3.76 34 -1 34 C-1.02704477 29.64579143 -1.04686133 25.291752 -1.0625 20.9375 C-1.07087891 19.70837891 -1.07925781 18.47925781 -1.08789062 17.21289062 C-1.10363389 11.37213863 -1.08469508 5.74802983 0 0 Z " fill="#F81C61" transform="translate(129,291)"/>
<path d="M0 0 C3.87766981 2.30112233 6.330664 5.06796853 7.5625 9.4375 C8.01901085 13.48837787 8.21691157 17.40490981 7.5625 21.4375 C6.03515625 23.296875 6.03515625 23.296875 4.5625 24.4375 C4.0675 21.9625 4.0675 21.9625 3.5625 19.4375 C3.2325 19.4375 2.9025 19.4375 2.5625 19.4375 C2.49933594 18.75042969 2.43617188 18.06335938 2.37109375 17.35546875 C1.86845933 12.10789421 1.86845933 12.10789421 -1.12890625 8.10546875 C-3.26297627 7.17942582 -3.26297627 7.17942582 -6.4375 6.4375 C-6.11394531 6.99566406 -5.79039062 7.55382812 -5.45703125 8.12890625 C-3.28984036 13.03622355 -3.75300416 18.63619515 -5.625 23.5625 C-7.4375 25.4375 -7.4375 25.4375 -10.125 25.75 C-10.888125 25.646875 -11.65125 25.54375 -12.4375 25.4375 C-14.76340854 21.80326791 -14.60015833 18.66661669 -14.4375 14.4375 C-16.4175 14.4375 -18.3975 14.4375 -20.4375 14.4375 C-20.1075 13.4475 -19.7775 12.4575 -19.4375 11.4375 C-18.1175 11.7675 -16.7975 12.0975 -15.4375 12.4375 C-18.64568244 8.55015631 -18.64568244 8.55015631 -23.25 7.125 C-23.971875 7.228125 -24.69375 7.33125 -25.4375 7.4375 C-23.59629062 3.53846838 -21.45561207 1.17032232 -17.58984375 -0.83203125 C-11.80870193 -2.79405216 -5.58009099 -2.40485265 0 0 Z " fill="#F3175D" transform="translate(211.4375,291.5625)"/>
<path d="M0 0 C2.93409931 4.40114897 2.05052932 8.38754316 1.875 13.5546875 C1.99637908 16.90019835 2.54860225 19.01783119 4 22 C3 23 3 23 -0.875 23.25 C-4.70325694 23.2225573 -4.70325694 23.2225573 -7 21.5 C-7.33 21.005 -7.66 20.51 -8 20 C-7.34 18.02 -6.68 16.04 -6 14 C-10.29 14 -14.58 14 -19 14 C-19.33 15.32 -19.66 16.64 -20 18 C-21.32 18 -22.64 18 -24 18 C-25.35550385 15.2889923 -25.16917207 13.08660831 -25.1875 10.0625 C-25.20167969 9.00160156 -25.21585937 7.94070313 -25.23046875 6.84765625 C-25 4 -25 4 -23 1 C-21.68 1 -20.36 1 -19 1 C-18.67 2.32 -18.34 3.64 -18 5 C-14.04 5.33 -10.08 5.66 -6 6 C-6.33 4.35 -6.66 2.7 -7 1 C-4.46578263 -0.26710868 -2.80561762 -0.28056176 0 0 Z " fill="#170F12" transform="translate(468,298)"/>
<path d="M0 0 C12.66666667 0 12.66666667 0 17 4 C19.58644464 7.4094043 19.36503115 10.8386449 19 15 C17.76066144 17.78851176 16.83914605 19.44883362 14.28125 21.12890625 C9.7603589 22.85520542 4.76440751 22.10357408 0 22 C0 14.74 0 7.48 0 0 Z " fill="#171717" transform="translate(537,167)"/>
<path d="M0 0 C0.845625 -0.00773437 1.69125 -0.01546875 2.5625 -0.0234375 C5.66433041 0.48359247 6.92168749 0.98494062 9 3.375 C9.40738428 6.20272621 9.56016044 8.55748606 9.5 11.375 C9.51546875 12.09945313 9.5309375 12.82390625 9.546875 13.5703125 C9.5230214 16.80247595 9.45191705 18.84444309 7.31640625 21.3515625 C4.53210052 22.58172793 2.47806805 22.77482096 -0.5625 22.75 C-1.98755859 22.76160156 -1.98755859 22.76160156 -3.44140625 22.7734375 C-6 22.375 -6 22.375 -7.8125 21.3515625 C-9.70341397 18.20418596 -9.47236445 14.93751329 -9.4375 11.375 C-9.45748047 10.65054687 -9.47746094 9.92609375 -9.49804688 9.1796875 C-9.49504037 5.92063125 -9.46444274 3.9103258 -7.28515625 1.3984375 C-4.67684046 0.23026872 -2.85288961 -0.0260935 0 0 Z " fill="#F1145B" transform="translate(206,339.625)"/>
<path d="M0 0 C12.55555556 0 12.55555556 0 16 3 C18.98563681 7.47845521 18.82646523 11.75806774 18 17 C15.25276596 20.89191489 15.25276596 20.89191489 12 22 C7.9014292 22.38587053 4.13598951 22.22977719 0 22 C0 14.74 0 7.48 0 0 Z " fill="#181818" transform="translate(214,409)"/>
<path d="M0 0 C12.42307692 0 12.42307692 0 16 3 C18.57399511 5.57399511 18.32659936 6.73569284 18.375 10.3125 C18.31399256 14.19155644 18.16295421 15.72840964 16.125 19.125 C12.6125684 22.22420435 10.48985367 22.11159419 5.875 22.0625 C2.966875 22.0315625 2.966875 22.0315625 0 22 C0 14.74 0 7.48 0 0 Z " fill="#181818" transform="translate(70,51)"/>
<path d="M0 0 C12.55555556 0 12.55555556 0 16 3 C18.82368571 7.23552856 18.66653757 11.02477314 18 16 C16.20353146 18.93423195 15.0558929 20.47205355 12 22 C9.95944995 22.07065617 7.91665743 22.08421976 5.875 22.0625 C2.966875 22.0315625 2.966875 22.0315625 0 22 C0 14.74 0 7.48 0 0 Z " fill="#181818" transform="translate(395,51)"/>
<path d="M0 0 C11.77405952 -0.85733443 11.77405952 -0.85733443 15.75 1.8125 C18.59696387 5.84569881 18.81115631 8.54517793 18.50390625 13.40234375 C18 16 18 16 16.125 19.0625 C11.92237883 21.66812513 7.85735399 22.36807239 3 23 C0.34472918 14.98860348 -1.74662253 8.4420089 0 0 Z " fill="#1A1818" transform="translate(395,293)"/>
<path d="M0 0 C0.66 0 1.32 0 2 0 C3.32 0 4.64 0 6 0 C6.08710289 3.10398978 6.14042309 6.20766548 6.1875 9.3125 C6.21263672 10.19357422 6.23777344 11.07464844 6.26367188 11.98242188 C6.27333984 12.82998047 6.28300781 13.67753906 6.29296875 14.55078125 C6.3086792 15.33106689 6.32438965 16.11135254 6.34057617 16.9152832 C5.91223453 19.53722536 5.04678833 20.3637512 3 22 C0.11462914 23.44268543 -2.53108551 23.02257965 -5.7109375 22.9375 C-7.96196841 22.99896159 -9.84541855 23.37035063 -12 24 C-11.45276317 20.62537285 -10.9451 18.91765 -9 16 C-8.34 16 -7.68 16 -7 16 C-7.515625 15.34 -8.03125 14.68 -8.5625 14 C-10.59635123 9.75544092 -10.03302222 7.57481267 -9 3 C-6.771828 -0.75271074 -4.08161601 -0.26052868 0 0 Z " fill="#1B1819" transform="translate(288,173)"/>
<path d="M0 0 C2.31 0 4.62 0 7 0 C7 2.31 7 4.62 7 7 C8.65 7 10.3 7 12 7 C12 4.69 12 2.38 12 0 C14.31 0 16.62 0 19 0 C19 6.93 19 13.86 19 21 C16.69 21 14.38 21 12 21 C12 18.36 12 15.72 12 13 C10.35 13 8.7 13 7 13 C7 15.64 7 18.28 7 21 C4.69 21 2.38 21 0 21 C0 14.07 0 7.14 0 0 Z " fill="#F1145A" transform="translate(351,341)"/>
<path d="M0 0 C3.875 1.875 3.875 1.875 5 3 C5.66 2.01 6.32 1.02 7 0 C7.66 0.33 8.32 0.66 9 1 C8.67 1.33 8.34 1.66 8 2 C7.83333333 4.5 7.83333333 4.5 8 7 C9.03023457 8.25249952 9.03023457 8.25249952 11.25 8.125 C14.01251396 8.08304428 14.01251396 8.08304428 16.6875 7.375 C17.450625 7.25125 18.21375 7.1275 19 7 C19.66 7.66 20.32 8.32 21 9 C20.44444444 13.55555556 20.44444444 13.55555556 19 15 C19.78375 15.28875 20.5675 15.5775 21.375 15.875 C24 17 24 17 26 19 C26 20.32 26 21.64 26 23 C22.1936543 22.32829194 18.64793184 21.27253436 15 20 C15.33 19.01 15.66 18.02 16 17 C14.35 17 12.7 17 11 17 C10.01 19.31 9.02 21.62 8 24 C7.46375 23.71125 6.9275 23.4225 6.375 23.125 C3.64719516 21.83288192 0.87387282 20.91441408 -2 20 C-1.67 19.34 -1.34 18.68 -1 18 C-3.31 17.67 -5.62 17.34 -8 17 C-8 16.67 -8 16.34 -8 16 C-7.37351563 15.96261719 -6.74703125 15.92523438 -6.1015625 15.88671875 C-5.28429687 15.82097656 -4.46703125 15.75523437 -3.625 15.6875 C-2.81289062 15.62949219 -2.00078125 15.57148438 -1.1640625 15.51171875 C1.37921338 15.17009472 1.37921338 15.17009472 3 12 C-1.455 12.495 -1.455 12.495 -6 13 C-6.33 11.68 -6.66 10.36 -7 9 C-3.37 9 0.26 9 4 9 C2.09115308 4.45829004 2.09115308 4.45829004 0 0 Z " fill="#F1175C" transform="translate(247,173)"/>
<path d="M0 0 C6 0 6 0 7.6796875 1.3125 C8.78645833 2.875 9.89322917 4.4375 11 6 C11.33 4.02 11.66 2.04 12 0 C13.98 0 15.96 0 18 0 C18 6.93 18 13.86 18 21 C16.02 21 14.04 21 12 21 C11.566875 19.6078125 11.566875 19.6078125 11.125 18.1875 C10.1125 14.90208333 10.1125 14.90208333 8 12 C7.67 14.97 7.34 17.94 7 21 C4.69 21 2.38 21 0 21 C0 14.07 0 7.14 0 0 Z " fill="#F6155C" transform="translate(298,341)"/>
<path d="M0 0 C3.96 0 7.92 0 12 0 C15.32270836 7.06075526 15.31806054 13.2723068 15 21 C13.02 21 11.04 21 9 21 C8.67 19.35 8.34 17.7 8 16 C6.35 16 4.7 16 3 16 C3 17.65 3 19.3 3 21 C1.02 21 -0.96 21 -3 21 C-3.31806054 13.2723068 -3.32270836 7.06075526 0 0 Z " fill="#EA1458" transform="translate(267,341)"/>
<path d="M0 0 C10.7421875 -0.1953125 10.7421875 -0.1953125 14 0 C16.29823659 2.29823659 16.29690384 2.94880882 16.5625 6.0625 C16.55913448 9.76736617 16.55913448 9.76736617 18 11 C18.07205511 12.68608966 18.08386068 14.37500659 18.0625 16.0625 C18.05347656 16.98160156 18.04445313 17.90070313 18.03515625 18.84765625 C18.02355469 19.55792969 18.01195312 20.26820313 18 21 C16.02 21 14.04 21 12 21 C12 18.69 12 16.38 12 14 C10.02 14 8.04 14 6 14 C6 16.31 6 18.62 6 21 C4.02 21 2.04 21 0 21 C0 14.07 0 7.14 0 0 Z " fill="#F2145B" transform="translate(418,341)"/>
<path d="M0 0 C0.33 0 0.66 0 1 0 C1 10.89 1 21.78 1 33 C0.67 33 0.34 33 0 33 C-0.33 29.37 -0.66 25.74 -1 22 C-2.98 22.99 -2.98 22.99 -5 24 C-7.33203812 24.0777346 -9.66839059 24.08967728 -12 24 C-16.0575693 17.72921109 -16.0575693 17.72921109 -15.8125 14.625 C-14.86174828 11.55334058 -13.52126221 8.98435668 -11.9375 6.1875 C-11.11572266 4.72376953 -11.11572266 4.72376953 -10.27734375 3.23046875 C-9.64505859 2.12638672 -9.64505859 2.12638672 -9 1 C-6.03 1.99 -3.06 2.98 0 4 C0 2.68 0 1.36 0 0 Z " fill="#29171D" transform="translate(86,291)"/>
<path d="M0 0 C2.25 0.875 2.25 0.875 3.25 1.875 C3.58 1.215 3.91 0.555 4.25 -0.125 C5.57 -0.125 6.89 -0.125 8.25 -0.125 C8.33706892 3.14566566 8.39041241 6.41603365 8.4375 9.6875 C8.46263672 10.61626953 8.48777344 11.54503906 8.51367188 12.50195312 C8.52333984 13.39462891 8.53300781 14.28730469 8.54296875 15.20703125 C8.5586792 16.02921143 8.57438965 16.8513916 8.59057617 17.69848633 C8.17007328 20.38578615 7.38880236 21.24626696 5.25 22.875 C3.09375 23.23828125 3.09375 23.23828125 0.75 23.1875 C-0.0234375 23.18363281 -0.796875 23.17976563 -1.59375 23.17578125 C-3.75 22.875 -3.75 22.875 -6.75 20.875 C-6.75 19.885 -6.75 18.895 -6.75 17.875 C-3.12 18.205 0.51 18.535 4.25 18.875 C3.92 17.555 3.59 16.235 3.25 14.875 C2.59 15.535 1.93 16.195 1.25 16.875 C-1.125 17.3125 -1.125 17.3125 -3.75 16.875 C-6.81011194 14.14571097 -7.66022982 12.43356999 -8.3125 8.375 C-7.75 4.875 -7.75 4.875 -5.5625 1.875 C-2.75 -0.125 -2.75 -0.125 0 0 Z " fill="#171717" transform="translate(466.75,56.125)"/>
<path d="M0 0 C2.25 0.875 2.25 0.875 3.25 1.875 C3.58 1.215 3.91 0.555 4.25 -0.125 C5.57 -0.125 6.89 -0.125 8.25 -0.125 C8.33706892 3.14566566 8.39041241 6.41603365 8.4375 9.6875 C8.46263672 10.61626953 8.48777344 11.54503906 8.51367188 12.50195312 C8.52333984 13.39462891 8.53300781 14.28730469 8.54296875 15.20703125 C8.5586792 16.02921143 8.57438965 16.8513916 8.59057617 17.69848633 C8.17007328 20.38578615 7.38880236 21.24626696 5.25 22.875 C3.09375 23.23828125 3.09375 23.23828125 0.75 23.1875 C-0.0234375 23.18363281 -0.796875 23.17976563 -1.59375 23.17578125 C-3.75 22.875 -3.75 22.875 -6.75 20.875 C-6.75 20.215 -6.75 19.555 -6.75 18.875 C-3.78 18.875 -0.81 18.875 2.25 18.875 C2.25 17.885 2.25 16.895 2.25 15.875 C1.528125 16.143125 0.80625 16.41125 0.0625 16.6875 C-2.75 16.875 -2.75 16.875 -5.5625 14.875 C-7.75 11.875 -7.75 11.875 -8.375 8.375 C-7.50145873 3.4831689 -5.39752982 -0.24534226 0 0 Z " fill="#181818" transform="translate(141.75,56.125)"/>
<path d="M0 0 C1.76923828 0.04060547 1.76923828 0.04060547 3.57421875 0.08203125 C4.47785156 0.11683594 5.38148438 0.15164063 6.3125 0.1875 C6.3125 1.8375 6.3125 3.4875 6.3125 5.1875 C3.3425 5.1875 0.3725 5.1875 -2.6875 5.1875 C-2.6875 5.8475 -2.6875 6.5075 -2.6875 7.1875 C-1.32625 7.0946875 -1.32625 7.0946875 0.0625 7 C3.3125 7.1875 3.3125 7.1875 5.6875 8.1875 C7.87465014 10.87937709 7.79247334 12.86574075 7.84375 16.25 C7.3125 18.1875 7.3125 18.1875 5.703125 19.92578125 C2.51848914 21.60656129 0.14219235 21.48239077 -3.4375 21.375 C-4.60796875 21.34792969 -5.7784375 21.32085937 -6.984375 21.29296875 C-7.87640625 21.25816406 -8.7684375 21.22335937 -9.6875 21.1875 C-9.730221 19.52138095 -9.72813832 17.85367115 -9.6875 16.1875 C-8.6875 15.1875 -8.6875 15.1875 -6.62109375 15.08984375 C-5.38552734 15.10724609 -5.38552734 15.10724609 -4.125 15.125 C-3.29871094 15.13402344 -2.47242188 15.14304687 -1.62109375 15.15234375 C-0.98300781 15.16394531 -0.34492188 15.17554688 0.3125 15.1875 C0.3125 14.5275 0.3125 13.8675 0.3125 13.1875 C-0.780625 13.249375 -1.87375 13.31125 -3 13.375 C-6.6875 13.1875 -6.6875 13.1875 -8.625 12.125 C-10.3015629 9.06773824 -10.05278977 6.5968712 -9.6875 3.1875 C-7.21642016 -0.6282664 -4.24771656 -0.1261698 0 0 Z " fill="#F0145A" transform="translate(141.6875,340.8125)"/>
<path d="M0 0 C1.7325 0.061875 1.7325 0.061875 3.5 0.125 C4.16 0.125 4.82 0.125 5.5 0.125 C6.82 0.125 8.14 0.125 9.5 0.125 C9.58710289 3.22898978 9.64042309 6.33266548 9.6875 9.4375 C9.71263672 10.31857422 9.73777344 11.19964844 9.76367188 12.10742188 C9.77333984 12.95498047 9.78300781 13.80253906 9.79296875 14.67578125 C9.8086792 15.45606689 9.82438965 16.23635254 9.84057617 17.0402832 C9.41126055 19.66818722 8.59938263 20.53417903 6.5 22.125 C4.01953125 22.41796875 4.01953125 22.41796875 1.3125 22.3125 C-0.03908203 22.27189453 -0.03908203 22.27189453 -1.41796875 22.23046875 C-2.10503906 22.19566406 -2.79210937 22.16085937 -3.5 22.125 C-4.16 20.805 -4.82 19.485 -5.5 18.125 C-2.2 18.455 1.1 18.785 4.5 19.125 C4.5 17.805 4.5 16.485 4.5 15.125 C3.613125 15.393125 2.72625 15.66125 1.8125 15.9375 C-1.5 16.125 -1.5 16.125 -4.4375 14.25 C-6.97945718 10.39854973 -6.75030692 8.5287373 -6.08984375 4.11328125 C-4.98410514 0.38599018 -3.81986301 0.13642368 0 0 Z " fill="#181818" transform="translate(284.5,414.875)"/>
<path d="M0 0 C5.28 0 10.56 0 16 0 C16 1.65 16 3.3 16 5 C13.03 5 10.06 5 7 5 C7 5.66 7 6.32 7 7 C8.98 7 10.96 7 13 7 C13 8.98 13 10.96 13 13 C11.02 13 9.04 13 7 13 C7 13.66 7 14.32 7 15 C9.97 15 12.94 15 16 15 C16 16.98 16 18.96 16 21 C10.72 21 5.44 21 0 21 C0 14.07 0 7.14 0 0 Z " fill="#F2145B" transform="translate(386,341)"/>
<path d="M0 0 C5.28 0 10.56 0 16 0 C16 1.65 16 3.3 16 5 C13.03 5 10.06 5 7 5 C7 5.66 7 6.32 7 7 C8.98 7 10.96 7 13 7 C13 8.98 13 10.96 13 13 C11.02 13 9.04 13 7 13 C7 13.66 7 14.32 7 15 C8.299375 14.979375 9.59875 14.95875 10.9375 14.9375 C12.29165633 14.91600546 13.64756083 14.92851801 15 15 C16 16 16 16 16 21 C10.72 21 5.44 21 0 21 C0 14.07 0 7.14 0 0 Z " fill="#F0145A" transform="translate(452,341)"/>
<path d="M0 0 C0.33 0 0.66 0 1 0 C1 11.22 1 22.44 1 34 C-3.62 34 -8.24 34 -13 34 C-13 30.04 -13 26.08 -13 22 C-14.65 22 -16.3 22 -18 22 C-18 21.67 -18 21.34 -18 21 C-16.02 21 -14.04 21 -12 21 C-12 20.34 -12 19.68 -12 19 C-15.3 19 -18.6 19 -22 19 C-22 18.34 -22 17.68 -22 17 C-18.37 17 -14.74 17 -11 17 C-10.67 15.68 -10.34 14.36 -10 13 C-10 14.65 -10 16.3 -10 18 C-9.34 17.67 -8.68 17.34 -8 17 C-8 16.01 -8 15.02 -8 14 C-7.01 14.66 -6.02 15.32 -5 16 C-3.35 16.33 -1.7 16.66 0 17 C0 11.39 0 5.78 0 0 Z " fill="#FD155F" transform="translate(118,291)"/>
<path d="M0 0 C1.77503906 0.03480469 1.77503906 0.03480469 3.5859375 0.0703125 C5.36871094 0.09738281 5.36871094 0.09738281 7.1875 0.125 C8.10273438 0.14820313 9.01796875 0.17140625 9.9609375 0.1953125 C9.9609375 1.8453125 9.9609375 3.4953125 9.9609375 5.1953125 C7.3209375 5.1953125 4.6809375 5.1953125 1.9609375 5.1953125 C1.9609375 8.4953125 1.9609375 11.7953125 1.9609375 15.1953125 C3.2809375 15.1953125 4.6009375 15.1953125 5.9609375 15.1953125 C5.9609375 13.5453125 5.9609375 11.8953125 5.9609375 10.1953125 C7.9409375 10.1953125 9.9209375 10.1953125 11.9609375 10.1953125 C11.9609375 13.8253125 11.9609375 17.4553125 11.9609375 21.1953125 C9.69068782 21.27628574 7.41961675 21.33448954 5.1484375 21.3828125 C3.25158203 21.43501953 3.25158203 21.43501953 1.31640625 21.48828125 C-2.0390625 21.1953125 -2.0390625 21.1953125 -3.96875 20.1875 C-5.6918363 16.98029558 -5.42991004 13.67725537 -5.3515625 10.1328125 C-5.35478516 9.39998047 -5.35800781 8.66714844 -5.36132812 7.91210938 C-5.28483856 0.33964258 -5.28483856 0.33964258 0 0 Z " fill="#F5155C" transform="translate(236.0390625,340.8046875)"/>
<path d="M0 0 C8 0 8 0 11.3125 0.5625 C14.93999237 1.18186377 14.93999237 1.18186377 18.25 0.375 C21 0 21 0 22.66015625 1.02734375 C24.69868526 4.02867655 24.28585253 6.61402473 24.1875 10.1875 C24.16042969 11.45980469 24.13335937 12.73210937 24.10546875 14.04296875 C24.07066406 15.01878906 24.03585938 15.99460937 24 17 C22.68 17 21.36 17 20 17 C20 13.04 20 9.08 20 5 C18.35 5.33 16.7 5.66 15 6 C14.67 9.63 14.34 13.26 14 17 C12.68 17 11.36 17 10 17 C9.67 13.04 9.34 9.08 9 5 C8.01 5 7.02 5 6 5 C5.67 8.96 5.34 12.92 5 17 C3.35 17 1.7 17 0 17 C0 11.39 0 5.78 0 0 Z " fill="#171717" transform="translate(217,56)"/>
<path d="M0 0 C2.31 0 4.62 0 7 0 C7 4.95 7 9.9 7 15 C8.32 15 9.64 15 11 15 C11 13.02 11 11.04 11 9 C12.99954746 8.95745644 15.00041636 8.95919217 17 9 C18 10 18 10 18.09765625 12.50390625 C18.06510417 15.3359375 18.03255208 18.16796875 18 21 C12.06 21 6.12 21 0 21 C0 14.07 0 7.14 0 0 Z " fill="#EA1458" transform="translate(164,341)"/>
<path d="M0 0 C4.59608669 0 8.49101236 0.21582824 13 1 C13 1.66 13 2.32 13 3 C13.66 3 14.32 3 15 3 C15 2.34 15 1.68 15 1 C17.8125 0.3125 17.8125 0.3125 21 0 C22.6875 1.03125 22.6875 1.03125 24 3 C24.29296875 6.35546875 24.29296875 6.35546875 24.1875 10.1875 C24.16042969 11.45980469 24.13335938 12.73210937 24.10546875 14.04296875 C24.07066406 15.01878906 24.03585937 15.99460937 24 17 C22.68 17 21.36 17 20 17 C19.67 13.37 19.34 9.74 19 6 C16.525 5.505 16.525 5.505 14 5 C14 8.96 14 12.92 14 17 C12.68 17 11.36 17 10 17 C9.67 13.04 9.34 9.08 9 5 C8.01 5 7.02 5 6 5 C5.67 8.96 5.34 12.92 5 17 C3.35 17 1.7 17 0 17 C0 11.39 0 5.78 0 0 Z " fill="#181818" transform="translate(542,56)"/>
<path d="M0 0 C4.29 0 8.58 0 13 0 C13 0.66 13 1.32 13 2 C13.99 1.34 14.98 0.68 16 0 C19.0625 -0.25 19.0625 -0.25 22 0 C24 2 24 2 24.1953125 5.2578125 C24.17210937 6.53398437 24.14890625 7.81015625 24.125 9.125 C24.10695313 10.40632813 24.08890625 11.68765625 24.0703125 13.0078125 C24.04710937 13.99523437 24.02390625 14.98265625 24 16 C22.68 16 21.36 16 20 16 C19.67 12.37 19.34 8.74 19 5 C18.01 4.67 17.02 4.34 16 4 C15.67 7.96 15.34 11.92 15 16 C13.35 16 11.7 16 10 16 C9.67 12.04 9.34 8.08 9 4 C8.01 4 7.02 4 6 4 C5.67 7.96 5.34 11.92 5 16 C3.35 16 1.7 16 0 16 C0 10.72 0 5.44 0 0 Z " fill="#181818" transform="translate(361,415)"/>
<path d="M0 0 C2.475 0.495 2.475 0.495 5 1 C5.33 0.67 5.66 0.34 6 0 C7.99952758 -0.04346799 10.00039988 -0.039992 12 0 C14.02126284 0 16.04291874 -0.04256811 18.0625 -0.125 C21 0 21 0 23 2 C23.1953125 5.2578125 23.1953125 5.2578125 23.125 9.125 C23.10695313 10.40632812 23.08890625 11.68765625 23.0703125 13.0078125 C23.04710938 13.99523437 23.02390625 14.98265625 23 16 C21.68 16 20.36 16 19 16 C18.67 12.37 18.34 8.74 18 5 C16.68 4.67 15.36 4.34 14 4 C14 7.96 14 11.92 14 16 C12.35 16 10.7 16 9 16 C8.67 12.04 8.34 8.08 8 4 C7.01 4.33 6.02 4.66 5 5 C4.67 8.63 4.34 12.26 4 16 C2.68 16 1.36 16 0 16 C0 10.72 0 5.44 0 0 Z " fill="#181818" transform="translate(37,173)"/>
<path d="M0 0 C0.33 0 0.66 0 1 0 C1 7.92 1 15.84 1 24 C1.99 24 2.98 24 4 24 C4 20.04 4 16.08 4 12 C5.65 11.67 7.3 11.34 9 11 C9.28875 11.804375 9.5775 12.60875 9.875 13.4375 C10.73262568 16.1326468 10.73262568 16.1326468 13 17 C12.67 22.61 12.34 28.22 12 34 C3.50390625 34.09765625 3.50390625 34.09765625 1 34 C0 33 0 33 -0.11352539 29.85717773 C-0.11336633 28.46597303 -0.10767506 27.07476239 -0.09765625 25.68359375 C-0.0962413 24.95253922 -0.09482635 24.22148468 -0.09336853 23.46827698 C-0.08775408 21.12464368 -0.07519922 18.78110461 -0.0625 16.4375 C-0.05748686 14.85221492 -0.05292363 13.26692834 -0.04882812 11.68164062 C-0.03777997 7.7877239 -0.02050572 3.89387795 0 0 Z " fill="#C6184F" transform="translate(227,291)"/>
<path d="M0 0 C2.12835316 1.60611836 2.89557124 2.48914579 3.43359375 5.12109375 C3.43994339 8.88642847 3.4311636 11.29289169 1.4375 14.5625 C-1.99917081 16.58925458 -4.07417186 16.6198676 -8 16 C-10.9375 13.875 -10.9375 13.875 -13 11 C-13.55348638 7.12559532 -13.29968563 4.21955988 -11 1 C-7.4367155 -1.7714435 -4.20758349 -0.99451973 0 0 Z " fill="#181818" transform="translate(536,57)"/>
<path d="M0 0 C2.13768008 1.60079729 2.89497329 2.48622071 3.43359375 5.12109375 C3.43994339 8.88642847 3.4311636 11.29289169 1.4375 14.5625 C-1.99917081 16.58925458 -4.07417186 16.6198676 -8 16 C-11.38677089 13.54999553 -12.78698584 12.13607554 -13.5625 8 C-12.87642343 4.34092496 -11.57265686 2.64832324 -9 0 C-5.85000502 -1.57499749 -3.36459118 -0.70833498 0 0 Z " fill="#181818" transform="translate(211,57)"/>
<path d="M0 0 C2.63929161 0.58326886 3.55285224 1.27811264 5.12109375 3.46875 C5.97672506 7.65440586 5.78368394 11.3368251 3.62109375 15.03125 C0.09043224 17.06138037 -2.90667584 17.40482889 -6.87890625 16.46875 C-9.8788374 13.91880852 -10.73371084 12.33992244 -11.37890625 8.46875 C-10.18040358 1.27773396 -6.66654272 -0.0899365 0 0 Z " fill="#181818" transform="translate(352.87890625,414.53125)"/>
<path d="M0 0 C2.99993115 2.54994148 3.85480459 4.12882756 4.5 8 C3.84823663 11.91058019 3.06862356 13.45528778 0 16 C-3.1222736 16.64812539 -5.87491691 16.62146539 -9 16 C-11.4395583 14.22577578 -11.8366175 13.02218795 -12.3046875 10.09375 C-12.52691687 6.59036936 -12.32809877 4.54683128 -10.5 1.5 C-6.98105682 -0.61136591 -3.99893269 -0.94237143 0 0 Z " fill="#181818" transform="translate(30,173)"/>
<path d="M0 0 C5.50192083 0.48905963 5.50192083 0.48905963 7.6640625 2.70703125 C10.10148558 6.89056152 9.84295088 11.32922301 9 16 C7.28149414 18.85198844 6.09829242 19.36635491 3 21 C-0.875 21.3125 -0.875 21.3125 -4 21 C-3.59248958 13.60860415 -2.41492814 7.00177279 0 0 Z " fill="#FD2D6F" transform="translate(223,168)"/>
<path d="M0 0 C2.4375 1.5 2.4375 1.5 4 4 C4.79841448 8.01676563 4.61897146 10.9683809 2.5 14.5 C-1.25648836 16.75389302 -3.64579381 16.48380069 -8 16 C-10.32669596 14.35544899 -10.91870744 13.44527814 -11.43359375 10.625 C-11.43488281 9.75875 -11.43617188 8.8925 -11.4375 8 C-11.45683594 7.13375 -11.47617187 6.2675 -11.49609375 5.375 C-11 3 -11 3 -9.19140625 1.21484375 C-5.95991905 -0.57658677 -3.62747708 -0.45343464 0 0 Z " fill="#FE2D6F" transform="translate(354,173)"/>
<path d="M0 0 C0.99 0.66 1.98 1.32 3 2 C3.29296875 5.2578125 3.29296875 5.2578125 3.1875 9.125 C3.16042969 10.40632813 3.13335937 11.68765625 3.10546875 13.0078125 C3.07066406 13.99523437 3.03585937 14.98265625 3 16 C-0.13871188 17.56935594 -2.53855822 17.35201103 -6 17 C-9.69186542 14.40783917 -10.82883761 12.95850936 -11.625 8.5 C-10.4411156 1.87024739 -6.64896296 -1.01179871 0 0 Z " fill="#151515" transform="translate(427,298)"/>
<path d="M0 0 C0.33 0 0.66 0 1 0 C1 5.94 1 11.88 1 18 C1.99 18 2.98 18 4 18 C4 13.71 4 9.42 4 5 C4.66 5 5.32 5 6 5 C6.07476562 5.62648438 6.14953125 6.25296875 6.2265625 6.8984375 C6.62998447 9.40598191 7.06609491 11.63497183 8 14 C10.98283157 15.69165301 10.98283157 15.69165301 14 16 C14 19.63 14 23.26 14 27 C9.38 27 4.76 27 0 27 C0 18.09 0 9.18 0 0 Z " fill="#DC1554" transform="translate(128,298)"/>
<path d="M0 0 C2.73883753 3.26893511 3 4.6660855 3 9 C-0.63 9 -4.26 9 -8 9 C-7.01 10.485 -7.01 10.485 -6 12 C-3.36 11.67 -0.72 11.34 2 11 C1.625 12.9375 1.625 12.9375 1 15 C-2.13871188 16.56935594 -4.53855822 16.35201103 -8 16 C-11 14 -11 14 -13 11 C-13.3518226 7.23256636 -12.82805426 4.11607313 -10.5625 1.0625 C-6.80563712 -1.49216676 -4.39763477 -1.08012082 0 0 Z " fill="#151515" transform="translate(104,57)"/>
<path d="M0 0 C2.7682485 1.81368005 2.97690674 2.89293126 3.6875 6.1875 C3.790625 7.115625 3.89375 8.04375 4 9 C0.37 9 -3.26 9 -7 9 C-7 9.99 -7 10.98 -7 12 C-3.50765756 12.09978121 -0.40562852 11.77842938 3 11 C2.625 12.9375 2.625 12.9375 2 15 C-1.13871188 16.56935594 -3.53855822 16.35201103 -7 16 C-9.9375 13.9375 -9.9375 13.9375 -12 11 C-12.5625 7.4375 -12.5625 7.4375 -12 4 C-8.25414621 -0.74474813 -5.80723211 -1.42217929 0 0 Z " fill="#161616" transform="translate(428,57)"/>
<path d="M0 0 C3.9375 0.5 3.9375 0.5 5.875 1.625 C7.32341512 4.18102669 7.61565583 6.60340247 7.9375 9.5 C4.3075 9.5 0.6775 9.5 -3.0625 9.5 C-3.0625 10.49 -3.0625 11.48 -3.0625 12.5 C0.42984244 12.59978121 3.53187148 12.27842938 6.9375 11.5 C6.0625 15.375 6.0625 15.375 4.9375 16.5 C1.88397067 16.933564 -1.01283653 16.96917899 -4.0625 16.5 C-7.13112356 13.95528778 -7.91073663 12.41058019 -8.5625 8.5 C-7.66914104 3.13984624 -5.53919283 0.22442402 0 0 Z " fill="#161616" transform="translate(243.0625,414.5)"/>
<path d="M0 0 C1.9375 1.125 1.9375 1.125 3 3 C3.6875 6.1875 3.6875 6.1875 4 9 C0.37 9 -3.26 9 -7 9 C-6.67 9.99 -6.34 10.98 -6 12 C-2.50765756 12.09978121 0.59437148 11.77842938 4 11 C2.125 14.875 2.125 14.875 1 16 C-2.0543848 16.43368547 -4.94832749 16.45801716 -8 16 C-10.625 14 -10.625 14 -12 11 C-12.20314979 7.39934512 -11.65012897 4.22377218 -9.9375 1 C-6.72807142 -0.65647927 -3.52447751 -0.52977532 0 0 Z " fill="#161616" transform="translate(570,173)"/>
<path d="M0 0 C1.875 1.125 1.875 1.125 3 3 C3.6875 6.1875 3.6875 6.1875 4 9 C0.37 9 -3.26 9 -7 9 C-6.67 9.99 -6.34 10.98 -6 12 C-3.03 12 -0.06 12 3 12 C2.34 13.32 1.68 14.64 1 16 C-2.05290263 16.29354833 -4.95457539 16.41409388 -8 16 C-11.06018871 13.46228253 -11.83450185 11.88265681 -12.5625 8 C-11.25203119 1.01083303 -6.64086318 -0.98383158 0 0 Z " fill="#FC2A6C" transform="translate(247,173)"/>
<path d="M0 0 C1.485 0.99 1.485 0.99 3 2 C3.33 1.34 3.66 0.68 4 0 C5.32 0 6.64 0 8 0 C8.08706892 3.27066566 8.14041241 6.54103365 8.1875 9.8125 C8.22520508 11.2056543 8.22520508 11.2056543 8.26367188 12.62695312 C8.27817383 13.9659668 8.27817383 13.9659668 8.29296875 15.33203125 C8.31653442 16.56530151 8.31653442 16.56530151 8.34057617 17.82348633 C8 20 8 20 6.73168945 21.79174805 C5 23 5 23 1 23 C0.67 23.99 0.34 24.98 0 26 C0 17.42 0 8.84 0 0 Z " fill="#191617" transform="translate(142,298)"/>
<path d="M0 0 C0.33 0 0.66 0 1 0 C2.34726969 9.77176327 1.51761599 17.51271263 -1 27 C-4.63 27 -8.26 27 -12 27 C-14.42857143 19.57142857 -14.42857143 19.57142857 -13 16 C-11.63875 16.0928125 -11.63875 16.0928125 -10.25 16.1875 C-6.65620765 15.98016583 -5.65463057 15.27539763 -3 13 C-2.34 13 -1.68 13 -1 13 C-0.67 8.71 -0.34 4.42 0 0 Z " fill="#EF155A" transform="translate(541,298)"/>
<path d="M0 0 C1.32 0.33 2.64 0.66 4 1 C4 4.96 4 8.92 4 13 C5.32 13 6.64 13 8 13 C8 16.3 8 19.6 8 23 C4.37 23 0.74 23 -3 23 C-3 19.7 -3 16.4 -3 13 C-2.34 13 -1.68 13 -1 13 C-1.01160156 12.14535156 -1.02320313 11.29070312 -1.03515625 10.41015625 C-1.04417969 9.30542969 -1.05320312 8.20070313 -1.0625 7.0625 C-1.07410156 5.96035156 -1.08570313 4.85820312 -1.09765625 3.72265625 C-1 1 -1 1 0 0 Z " fill="#F7155C" transform="translate(548,302)"/>
<path d="M0 0 C6.33333333 0 12.66666667 0 19 0 C18.6875 1.9375 18.6875 1.9375 18 4 C17.01 4.33 16.02 4.66 15 5 C14.67 8.63 14.34 12.26 14 16 C12.68 16 11.36 16 10 16 C9.67 12.04 9.34 8.08 9 4 C8.01 4 7.02 4 6 4 C5.67 7.96 5.34 11.92 5 16 C3.35 16 1.7 16 0 16 C0 10.72 0 5.44 0 0 Z " fill="#FD2C6E" transform="translate(361,173)"/>
<path d="M0 0 C1.32 0 2.64 0 4 0 C4.33 0.66 4.66 1.32 5 2 C5.66 1.34 6.32 0.68 7 0 C10 0.1875 10 0.1875 13 1 C15.42130331 4.63195496 15.21022785 6.38349348 15.125 10.6875 C15.10695313 11.86699219 15.08890625 13.04648438 15.0703125 14.26171875 C15.03550781 15.61716797 15.03550781 15.61716797 15 17 C13.35 17 11.7 17 10 17 C9.67 13.04 9.34 9.08 9 5 C7.68 5.33 6.36 5.66 5 6 C4.67 9.63 4.34 13.26 4 17 C2.68 17 1.36 17 0 17 C0 11.39 0 5.78 0 0 Z " fill="#181818" transform="translate(479,56)"/>
<path d="M0 0 C1.32 0 2.64 0 4 0 C4.33 0.66 4.66 1.32 5 2 C5.66 1.34 6.32 0.68 7 0 C10 0.1875 10 0.1875 13 1 C15.42130331 4.63195496 15.21022785 6.38349348 15.125 10.6875 C15.10695312 11.86699219 15.08890625 13.04648438 15.0703125 14.26171875 C15.03550781 15.61716797 15.03550781 15.61716797 15 17 C13.35 17 11.7 17 10 17 C9.67 13.04 9.34 9.08 9 5 C7.68 5.33 6.36 5.66 5 6 C4.67 9.63 4.34 13.26 4 17 C2.68 17 1.36 17 0 17 C0 11.39 0 5.78 0 0 Z " fill="#181818" transform="translate(154,56)"/>
<path d="M0 0 C4.75 0.75 4.75 0.75 7 3 C7.30078125 5.6796875 7.30078125 5.6796875 7.3125 8.875 C7.32925781 9.92429687 7.34601563 10.97359375 7.36328125 12.0546875 C6.96054879 15.31985174 6.32132196 16.70068109 4 19 C1.3125 19.25 1.3125 19.25 -1 19 C-3.35199995 14.4430001 -3.62635454 10.01991396 -3 5 C-1.5 1.9375 -1.5 1.9375 0 0 Z " fill="#020101" transform="translate(484,298)"/>
<path d="M0 0 C2.375 0.3125 2.375 0.3125 5 1 C7.83966847 5.2595027 7.50927592 9.00272999 7 14 C5.8125 17.125 5.8125 17.125 4 19 C1.3125 19.3125 1.3125 19.3125 -1 19 C-2.92275982 15.75199139 -3.29702176 13.25605246 -3.3125 9.5 C-3.32925781 8.5615625 -3.34601563 7.623125 -3.36328125 6.65625 C-2.94768059 3.61744947 -2.01958576 2.25937827 0 0 Z " fill="#26161B" transform="translate(200,298)"/>
<path d="M0 0 C2.475 0.495 2.475 0.495 5 1 C5.33 0.67 5.66 0.34 6 0 C11.29392491 -0.4603413 11.29392491 -0.4603413 13.68359375 1.09765625 C15.64837283 3.93696608 15.28858169 6.28441648 15.1875 9.6875 C15.16042969 10.86699219 15.13335937 12.04648438 15.10546875 13.26171875 C15.07066406 14.16535156 15.03585937 15.06898438 15 16 C13.35 16 11.7 16 10 16 C10 12.04 10 8.08 10 4 C8.35 4.33 6.7 4.66 5 5 C4.67 8.63 4.34 12.26 4 16 C2.68 16 1.36 16 0 16 C0 10.72 0 5.44 0 0 Z " fill="#181818" transform="translate(298,173)"/>
<path d="M0 0 C2.475 0.495 2.475 0.495 5 1 C5.33 0.67 5.66 0.34 6 0 C9.4375 -0.25 9.4375 -0.25 13 0 C15.42130331 3.63195496 15.21022785 5.38349348 15.125 9.6875 C15.10695313 10.86699219 15.08890625 12.04648437 15.0703125 13.26171875 C15.03550781 14.61716797 15.03550781 14.61716797 15 16 C13.35 16 11.7 16 10 16 C9.67 12.04 9.34 8.08 9 4 C7.68 4.33 6.36 4.66 5 5 C4.67 8.63 4.34 12.26 4 16 C2.68 16 1.36 16 0 16 C0 10.72 0 5.44 0 0 Z " fill="#181818" transform="translate(298,415)"/>
<path d="M0 0 C1.19109375 0.00773438 1.19109375 0.00773438 2.40625 0.015625 C3.2003125 0.01046875 3.994375 0.0053125 4.8125 0 C6.90625 0.265625 6.90625 0.265625 8.90625 2.265625 C8.90625 3.255625 8.90625 4.245625 8.90625 5.265625 C6.26625 4.935625 3.62625 4.605625 0.90625 4.265625 C1.463125 4.53375 2.02 4.801875 2.59375 5.078125 C5.10337523 6.36685147 7.49959236 7.79488978 9.90625 9.265625 C9.53125 12.203125 9.53125 12.203125 8.90625 15.265625 C6.57938547 16.42905727 5.05903587 16.46458488 2.46875 16.515625 C1.68628906 16.54140625 0.90382813 16.5671875 0.09765625 16.59375 C-2.60176348 16.18955881 -3.46834544 15.41889407 -5.09375 13.265625 C-5.09375 12.605625 -5.09375 11.945625 -5.09375 11.265625 C-3.44375 11.265625 -1.79375 11.265625 -0.09375 11.265625 C-0.09375 11.925625 -0.09375 12.585625 -0.09375 13.265625 C1.55625 13.265625 3.20625 13.265625 4.90625 13.265625 C4.90625 12.275625 4.90625 11.285625 4.90625 10.265625 C3.7925 10.141875 2.67875 10.018125 1.53125 9.890625 C-2.09375 9.265625 -2.09375 9.265625 -4.09375 7.265625 C-4.34375 4.765625 -4.34375 4.765625 -4.09375 2.265625 C-2.09375 0.265625 -2.09375 0.265625 0 0 Z " fill="#171717" transform="translate(581.09375,172.734375)"/>
<path d="M0 0 C0.66 1.32 1.32 2.64 2 4 C-0.97 3.67 -3.94 3.34 -7 3 C-6.67 3.66 -6.34 4.32 -6 5 C-3.66989091 5.67784992 -1.33640176 6.34416793 1 7 C1.66 7.66 2.32 8.32 3 9 C2.8125 11.5 2.8125 11.5 2 14 C-1.78760623 16.52507082 -4.55391578 16.62059926 -9 16 C-11 14.625 -11 14.625 -12 13 C-12 12.34 -12 11.68 -12 11 C-8.80097361 10.91113816 -6.07322544 11.08941469 -3 12 C-2.67 11.34 -2.34 10.68 -2 10 C-3.11375 9.87625 -4.2275 9.7525 -5.375 9.625 C-9 9 -9 9 -11 7 C-11.125 3.875 -11.125 3.875 -11 1 C-7.23710113 -1.55877123 -4.29541632 -1.11362645 0 0 Z " fill="#181818" transform="translate(446,57)"/>
<path d="M0 0 C0.66 1.32 1.32 2.64 2 4 C-0.97 3.67 -3.94 3.34 -7 3 C-6.67 3.66 -6.34 4.32 -6 5 C-3.66989091 5.67784992 -1.33640176 6.34416793 1 7 C1.66 7.66 2.32 8.32 3 9 C2.67028521 12.29714793 2.3773161 13.6226839 0 16 C-6.9769821 16.56265985 -6.9769821 16.56265985 -10.5 14.625 C-12 13 -12 13 -12 11 C-8.80097361 10.91113816 -6.07322544 11.08941469 -3 12 C-2.67 11.34 -2.34 10.68 -2 10 C-3.11375 9.87625 -4.2275 9.7525 -5.375 9.625 C-9 9 -9 9 -11 7 C-11.125 3.875 -11.125 3.875 -11 1 C-7.23710113 -1.55877123 -4.29541632 -1.11362645 0 0 Z " fill="#181818" transform="translate(121,57)"/>
<path d="M0 0 C1.21816406 0.03480469 1.21816406 0.03480469 2.4609375 0.0703125 C3.68683594 0.09738281 3.68683594 0.09738281 4.9375 0.125 C5.87722656 0.15980469 5.87722656 0.15980469 6.8359375 0.1953125 C7.4959375 1.5153125 8.1559375 2.8353125 8.8359375 4.1953125 C5.8659375 3.8653125 2.8959375 3.5353125 -0.1640625 3.1953125 C0.6309218 5.3534773 0.6309218 5.3534773 2.6484375 5.87109375 C3.3703125 6.08121094 4.0921875 6.29132813 4.8359375 6.5078125 C7.01171875 7.27734375 7.01171875 7.27734375 8.8359375 8.1953125 C10.0234375 10.6953125 10.0234375 10.6953125 9.8359375 13.1953125 C8.22896798 15.32773555 7.33008315 16.10400298 4.6796875 16.59375 C3.90625 16.58601563 3.1328125 16.57828125 2.3359375 16.5703125 C1.5625 16.57804687 0.7890625 16.58578125 -0.0078125 16.59375 C-2.64652076 16.1061626 -3.55563502 15.30895117 -5.1640625 13.1953125 C-5.1640625 12.5353125 -5.1640625 11.8753125 -5.1640625 11.1953125 C-1.96503611 11.10645066 0.76271206 11.28472719 3.8359375 12.1953125 C4.1659375 11.5353125 4.4959375 10.8753125 4.8359375 10.1953125 C3.7221875 10.0715625 2.6084375 9.9478125 1.4609375 9.8203125 C-2.1640625 9.1953125 -2.1640625 9.1953125 -4.1640625 7.1953125 C-4.4140625 4.6953125 -4.4140625 4.6953125 -4.1640625 2.1953125 C-2.1640625 0.1953125 -2.1640625 0.1953125 0 0 Z " fill="#181818" transform="translate(258.1640625,414.8046875)"/>
<path d="M0 0 C2.97 0 5.94 0 9 0 C8.87882813 0.64324219 8.75765625 1.28648437 8.6328125 1.94921875 C7.27358053 9.27861578 6.10172988 16.62778626 5 24 C4.67 23.34 4.34 22.68 4 22 C2.68 22 1.36 22 0 22 C0 14.74 0 7.48 0 0 Z " fill="#1C1719" transform="translate(214,167)"/>
<path d="M0 0 C0.6875 1.8125 0.6875 1.8125 1 4 C-0.4375 5.75 -0.4375 5.75 -2 7 C-0.02 7 1.96 7 4 7 C4 6.34 4 5.68 4 5 C5.65 5.33 7.3 5.66 9 6 C9 7.32 9 8.64 9 10 C5.37 10 1.74 10 -2 10 C-0.41727399 11.58272601 1.38034003 11.34735747 3.5625 11.5625 C4.38878906 11.64628906 5.21507813 11.73007812 6.06640625 11.81640625 C6.70449219 11.87699219 7.34257813 11.93757813 8 12 C8 12.66 8 13.32 8 14 C6.02 14 4.04 14 2 14 C2 14.99 2 15.98 2 17 C-3.42465753 16.51780822 -3.42465753 16.51780822 -5.875 14.3125 C-7.36633241 11.24698338 -7.48231822 9.37622756 -7 6 C-4.84909549 2.66238955 -3.79587201 1.26529067 0 0 Z " fill="#FD2C6E" transform="translate(98,298)"/>
<path d="M0 0 C4.66298587 1.38162544 4.66298587 1.38162544 6.375 4 C6.375 4.99 6.375 5.98 6.375 7 C4.725 6.67 3.075 6.34 1.375 6 C1.375 5.34 1.375 4.68 1.375 4 C-0.275 4.66 -1.925 5.32 -3.625 6 C-3.625 7.65 -3.625 9.3 -3.625 11 C0.07041586 11.95024979 2.67958414 11.95024979 6.375 11 C4.5 15.875 4.5 15.875 3.375 17 C-3.66346154 17.57692308 -3.66346154 17.57692308 -7.125 15.5 C-9.21901202 12.00997997 -9.50401716 8.90160249 -8.625 5 C-5.9573351 1.03892181 -4.82598436 0 0 0 Z " fill="#181818" transform="translate(189.625,56)"/>
<path d="M0 0 C0.886875 0.185625 1.77375 0.37125 2.6875 0.5625 C5.91350693 1.1863549 5.91350693 1.1863549 8.6875 0.375 C11 0 11 0 12.6328125 1.02734375 C14.70974871 4.02406599 14.28630006 6.59776439 14.1875 10.1875 C14.16042969 11.45980469 14.13335938 12.73210937 14.10546875 14.04296875 C14.07066406 15.01878906 14.03585937 15.99460937 14 17 C12.68 17 11.36 17 10 17 C9.67 13.04 9.34 9.08 9 5 C8.01 5 7.02 5 6 5 C5.67 8.96 5.34 12.92 5 17 C4.34 17 3.68 17 3 17 C3 14.36 3 11.72 3 9 C2.34 9 1.68 9 1 9 C0.67 9.99 0.34 10.98 0 12 C0 8.04 0 4.08 0 0 Z " fill="#FC2C6E" transform="translate(542,298)"/>
<path d="M0 0 C4.66298587 1.38162544 4.66298587 1.38162544 6.375 4 C6.375 4.99 6.375 5.98 6.375 7 C4.725 6.67 3.075 6.34 1.375 6 C1.375 5.34 1.375 4.68 1.375 4 C-0.275 4.66 -1.925 5.32 -3.625 6 C-3.625 8.31 -3.625 10.62 -3.625 13 C-2.7175 12.67 -1.81 12.34 -0.875 12 C2.375 11 2.375 11 6.375 11 C4.625 15.875 4.625 15.875 2.375 17 C-1.42377599 17.35173852 -3.76860153 17.52701444 -7.0625 15.5 C-9.23532082 12.02348669 -9.50925242 8.92483969 -8.625 5 C-5.9573351 1.03892181 -4.82598436 0 0 0 Z " fill="#181818" transform="translate(514.625,56)"/>
<path d="M0 0 C2.6421531 0.53130253 3.57224949 1.27590074 5.15625 3.43359375 C5.15625 4.42359375 5.15625 5.41359375 5.15625 6.43359375 C2.13205475 5.84555578 -0.86133453 5.20681257 -3.84375 4.43359375 C-4.57709429 8.41113503 -4.57709429 8.41113503 -4.84375 12.43359375 C-4.121875 12.28921875 -3.4 12.14484375 -2.65625 11.99609375 C-0.78125 11.62109375 1.09375 11.24609375 2.96875 10.87109375 C3.690625 10.72671875 4.4125 10.58234375 5.15625 10.43359375 C4.58280063 13.30084061 4.2947985 14.29504525 2.15625 16.43359375 C-4.73263889 17.10026042 -4.73263889 17.10026042 -8.34375 14.93359375 C-10.47404712 11.38309856 -10.48898513 8.47044942 -9.84375 4.43359375 C-8.01772195 -0.43581437 -4.62316545 -0.00770528 0 0 Z " fill="#181818" transform="translate(334.84375,414.56640625)"/>
<path d="M0 0 C3.9375 0.5 3.9375 0.5 5.9375 1.8125 C6.9375 3.5 6.9375 3.5 6.9375 6.5 C3.60416667 5.83333333 0.27083333 5.16666667 -3.0625 4.5 C-2.7325 6.81 -2.4025 9.12 -2.0625 11.5 C-0.7425 11.83 0.5775 12.16 1.9375 12.5 C2.2675 11.84 2.5975 11.18 2.9375 10.5 C4.2575 10.5 5.5775 10.5 6.9375 10.5 C6.5625 12.9375 6.5625 12.9375 5.9375 15.5 C2.76209056 17.08770472 -0.60440559 16.91100302 -4.0625 16.5 C-6.23726401 14.95661909 -6.88082637 13.86334727 -8.0625 11.5 C-8.46866229 7.84453935 -8.27684253 5.91082318 -6.5625 2.625 C-3.91778897 0.37699562 -3.29754139 0.13360205 0 0 Z " fill="#181818" transform="translate(8.0625,172.5)"/>
<path d="M0 0 C0.33 0 0.66 0 1 0 C1 11.22 1 22.44 1 34 C-3.62 34 -8.24 34 -13 34 C-13 30.04 -13 26.08 -13 22 C-14.65 22 -16.3 22 -18 22 C-18 21.67 -18 21.34 -18 21 C-16.02 21 -14.04 21 -12 21 C-12 20.34 -12 19.68 -12 19 C-15.3 19 -18.6 19 -22 19 C-22 18.34 -22 17.68 -22 17 C-18.37 17 -14.74 17 -11 17 C-10.67 15.68 -10.34 14.36 -10 13 C-10 14.65 -10 16.3 -10 18 C-9.34 17.67 -8.68 17.34 -8 17 C-8 16.01 -8 15.02 -8 14 C-7.01 14.66 -6.02 15.32 -5 16 C-3.35 16.33 -1.7 16.66 0 17 C0 11.39 0 5.78 0 0 Z M-9 19 C-9 19.66 -9 20.32 -9 21 C-9.99 21.33 -10.98 21.66 -12 22 C-12 25.63 -12 29.26 -12 33 C-8.04 33 -4.08 33 0 33 C0 29.04 0 25.08 0 21 C-3.76687864 19.11656068 -5.02958963 18.77942165 -9 19 Z " fill="#C9154E" transform="translate(118,291)"/>
<path d="M0 0 C0.33 0 0.66 0 1 0 C1 10.89 1 21.78 1 33 C4.3 33 7.6 33 11 33 C11 33.33 11 33.66 11 34 C7.37 34 3.74 34 0 34 C0 30.7 0 27.4 0 24 C-1.32 23.34 -2.64 22.68 -4 22 C-6.38125912 19.61874088 -6.34521641 18.89292462 -6.4375 15.625 C-6.3984375 13.171875 -6.3984375 13.171875 -6 11 C-3.5625 8.875 -3.5625 8.875 -1 7 C-0.10944264 3.35817665 -0.10944264 3.35817665 0 0 Z " fill="#3C1320" transform="translate(512,291)"/>
<path d="M0 0 C1.32 0 2.64 0 4 0 C4.33 0.66 4.66 1.32 5 2 C5.66 1.34 6.32 0.68 7 0 C8.65 0.33 10.3 0.66 12 1 C12 6.28 12 11.56 12 17 C11.34 17 10.68 17 10 17 C9.67 13.04 9.34 9.08 9 5 C7.68 5.33 6.36 5.66 5 6 C4.67 9.63 4.34 13.26 4 17 C2.68 17 1.36 17 0 17 C0 11.39 0 5.78 0 0 Z " fill="#F82B6C" transform="translate(154,298)"/>
<path d="M0 0 C3.96 0 7.92 0 12 0 C12 3.3 12 6.6 12 10 C8.04 10 4.08 10 0 10 C0 6.7 0 3.4 0 0 Z " fill="#E91457" transform="translate(408,315)"/>
<path d="M0 0 C1.67542976 0.28604898 3.34385343 0.61781233 5 1 C5.625 3.375 5.625 3.375 6 6 C5.34 6.66 4.68 7.32 4 8 C4.78375 8.28875 5.5675 8.5775 6.375 8.875 C9 10 9 10 11 12 C11 13.32 11 14.64 11 16 C7.1936543 15.32829194 3.64793184 14.27253436 0 13 C0.33 12.01 0.66 11.02 1 10 C-0.65 9.67 -2.3 9.34 -4 9 C-3.52418802 7.68628013 -3.04424851 6.37405454 -2.5625 5.0625 C-2.29566406 4.33160156 -2.02882813 3.60070312 -1.75390625 2.84765625 C-1 1 -1 1 0 0 Z " fill="#1C1517" transform="translate(262,180)"/>
<path d="M0 0 C0.33 0 0.66 0 1 0 C1 1.65 1 3.3 1 5 C2.3921875 4.6596875 2.3921875 4.6596875 3.8125 4.3125 C7 4 7 4 8.6875 5.03125 C10.68935661 8.03403491 10.28535655 10.63204548 10.1875 14.1875 C10.16042969 15.45980469 10.13335938 16.73210937 10.10546875 18.04296875 C10.07066406 19.01878906 10.03585937 19.99460937 10 21 C8.68 21 7.36 21 6 21 C5.67 17.04 5.34 13.08 5 9 C3.68 8.67 2.36 8.34 1 8 C1 15.26 1 22.52 1 30 C0.67 30 0.34 30 0 30 C0 20.1 0 10.2 0 0 Z " fill="#2E161D" transform="translate(556,294)"/>
<path d="M0 0 C6 0 6 0 7.875 1.625 C9.33486373 4.70693454 9.49214954 6.62526031 9 10 C7.3125 12.375 7.3125 12.375 5 14 C3.35 14 1.7 14 0 14 C0 9.38 0 4.76 0 0 Z " fill="#010101" transform="translate(400,297)"/>
<path d="M0 0 C3.375 0.25 3.375 0.25 7 1 C8.98768584 3.33337033 9.00111449 5.01092198 9.3125 8.0625 C9 11 9 11 7.875 12.875 C6 14 6 14 0 14 C0 9.38 0 4.76 0 0 Z " fill="#000000" transform="translate(542,171)"/>
<path d="M0 0 C3.375 0.3125 3.375 0.3125 7 1 C9.32579101 4.48868651 9.41865457 5.89718519 9 10 C7.875 12.375 7.875 12.375 6 14 C4.02 14 2.04 14 0 14 C0 9.38 0 4.76 0 0 Z " fill="#000000" transform="translate(219,413)"/>
<path d="M0 0 C1.32 0 2.64 0 4 0 C4 6.27 4 12.54 4 19 C2.68 19.33 1.36 19.66 0 20 C-2.32011034 16.33569875 -2.26783151 13.14564743 -2.25 8.875 C-2.25515625 7.63492187 -2.2603125 6.39484375 -2.265625 5.1171875 C-2 2 -2 2 0 0 Z " fill="#F72A6A" transform="translate(471,299)"/>
<path d="M0 0 C6 0 6 0 7.87890625 1.21484375 C9.34371232 3.54730498 9.25519728 4.84641197 8.9375 7.5625 C8.86402344 8.34753906 8.79054688 9.13257813 8.71484375 9.94140625 C8 12 8 12 6.19140625 13.27734375 C4 14 4 14 0 14 C0 9.38 0 4.76 0 0 Z " fill="#000000" transform="translate(75,297)"/>
<path d="M0 0 C3.375 0.3125 3.375 0.3125 7 1 C9.10364211 4.15546316 9.26411176 4.56087261 8.8125 8.0625 C8.73644531 8.75472656 8.66039062 9.44695312 8.58203125 10.16015625 C8 12 8 12 5 14 C3.35 14 1.7 14 0 14 C0 9.38 0 4.76 0 0 Z " fill="#000000" transform="translate(400,55)"/>
<path d="M0 0 C0 5.28 0 10.56 0 16 C-1.65 16 -3.3 16 -5 16 C-7.24711348 13.36545316 -7.93214664 11.40712016 -8.5 8 C-7.6960052 3.17603121 -5.0115183 0 0 0 Z " fill="#FC2C6E" transform="translate(142,298)"/>
<path d="M0 0 C6.52293578 0.48318043 6.52293578 0.48318043 8.5 2.625 C9.21400208 6.01650987 8.80694614 8.64806988 8 12 C5 14 5 14 0 14 C0 9.38 0 4.76 0 0 Z " fill="#000000" transform="translate(75,55)"/>
<path d="M0 0 C2 2 2 2 2.1953125 3.9453125 C2.13020833 5.96354167 2.06510417 7.98177083 2 10 C1.67 9.34 1.34 8.68 1 8 C0.34 8 -0.32 8 -1 8 C-1 10.64 -1 13.28 -1 16 C-1.33 16 -1.66 16 -2 16 C-2.33 12.04 -2.66 8.08 -3 4 C-4.32 4 -5.64 4 -7 4 C-7.33 7.96 -7.66 11.92 -8 16 C-8.99 16 -9.98 16 -11 16 C-11 10.72 -11 5.44 -11 0 C-10.34 0 -9.68 0 -9 0 C-9 0.66 -9 1.32 -9 2 C-8.34 2 -7.68 2 -7 2 C-7 1.34 -7 0.68 -7 0 C-4.29393021 -1.35303489 -2.8671629 -0.7884698 0 0 Z " fill="#FE2D6F" transform="translate(239,299)"/>
<path d="M0 0 C0.66 0 1.32 0 2 0 C2 4.29 2 8.58 2 13 C2.99 13 3.98 13 5 13 C5 15.64 5 18.28 5 21 C1.7 21 -1.6 21 -5 21 C-5 18.36 -5 15.72 -5 13 C-3.35 13 -1.7 13 0 13 C0 8.71 0 4.42 0 0 Z " fill="#FE165F" transform="translate(233,303)"/>
<path d="M0 0 C2.97 0 5.94 0 9 0 C8.48308594 0.95261719 7.96617188 1.90523438 7.43359375 2.88671875 C6.76748863 4.15325664 6.10216485 5.42020568 5.4375 6.6875 C5.09525391 7.31333984 4.75300781 7.93917969 4.40039062 8.58398438 C2.91259917 11.45436991 1.9650022 13.48669892 2.1875 16.75 C3.22865837 19.63320779 4.55534413 22.29912163 6 25 C4.02 25 2.04 25 0 25 C0 16.75 0 8.5 0 0 Z " fill="#E71A5B" transform="translate(69,291)"/>
<path d="M0 0 C1.9375 0.8125 1.9375 0.8125 3.9375 2.8125 C4.203125 4.90625 4.203125 4.90625 4.1875 7.3125 C4.19265625 8.1065625 4.1978125 8.900625 4.203125 9.71875 C3.9375 11.8125 3.9375 11.8125 1.9375 13.8125 C-0.5625 14.125 -0.5625 14.125 -3.0625 13.8125 C-5.59560053 10.01284921 -5.66468032 7.26863438 -5.0625 2.8125 C-3.52477558 0.2752547 -2.96930283 -0.26993662 0 0 Z " fill="#F6155C" transform="translate(275.0625,199.1875)"/>
<path d="M0 0 C5.37313433 0.47761194 5.37313433 0.47761194 7.875 2.5625 C9.49407431 6.07049434 9.84621288 9.21145058 9 13 C6.6875 15.5 6.6875 15.5 4 17 C3.01 17 2.02 17 1 17 C1.01160156 16.10796875 1.02320313 15.2159375 1.03515625 14.296875 C1.04417969 13.12640625 1.05320313 11.9559375 1.0625 10.75 C1.07410156 9.58984375 1.08570313 8.4296875 1.09765625 7.234375 C1.01782092 4.59022872 0.78643778 2.50173909 0 0 Z " fill="#FC2C6E" transform="translate(205,298)"/>
<path d="M0 0 C1.485 0.99 1.485 0.99 3 2 C3.66 1.67 4.32 1.34 5 1 C5.33 2.98 5.66 4.96 6 7 C7.98 7.66 9.96 8.32 12 9 C12 8.01 12 7.02 12 6 C11.01 5.67 10.02 5.34 9 5 C9.33 4.01 9.66 3.02 10 2 C11.32 2.33 12.64 2.66 14 3 C13.67 6.3 13.34 9.6 13 13 C8.545 12.01 8.545 12.01 4 11 C3.67 11.66 3.34 12.32 3 13 C3 12.34 3 11.68 3 11 C2.01 11 1.02 11 0 11 C-0.33 11.99 -0.66 12.98 -1 14 C-1.02705729 12.22925083 -1.04642195 10.45838289 -1.0625 8.6875 C-1.07410156 7.70136719 -1.08570313 6.71523438 -1.09765625 5.69921875 C-1 3 -1 3 0 0 Z " fill="#EF155A" transform="translate(430,299)"/>
<path d="M0 0 C2.13586678 3.20380017 2.23132175 4.01939967 2.125 7.6875 C2.10695313 8.49574219 2.08890625 9.30398437 2.0703125 10.13671875 C2.03550781 11.05904297 2.03550781 11.05904297 2 12 C0.68 12.33 -0.64 12.66 -2 13 C-2.556875 12.21625 -3.11375 11.4325 -3.6875 10.625 C-6.07668565 7.91295142 -7.60073413 7.03866457 -11 6 C-10.2890625 4.078125 -10.2890625 4.078125 -9 2 C-6.8359375 1.171875 -6.8359375 1.171875 -4.375 0.75 C-3.14910156 0.52570313 -3.14910156 0.52570313 -1.8984375 0.296875 C-1.27195312 0.19890625 -0.64546875 0.1009375 0 0 Z " fill="#1D181A" transform="translate(336,172)"/>
<path d="M0 0 C3.33727786 1.17255709 5.77437487 2.18868404 8 5 C8 5.66 8 6.32 8 7 C9.98 6.34 11.96 5.68 14 5 C13.42655063 7.86724686 13.1385485 8.8614515 11 11 C4.03671706 11.67386609 4.03671706 11.67386609 0.5 9.375 C-1.39387281 6.37636806 -1.38721999 4.48497993 -1 1 C-0.67 0.67 -0.34 0.34 0 0 Z " fill="#FC2C6E" transform="translate(326,178)"/>
<path d="M0 0 C5 3 5 3 6 5 C6.4524237 11.22082585 6.4524237 11.22082585 4.875 13.9375 C3 15 3 15 -3 15 C-2.01 10.05 -1.02 5.1 0 0 Z " fill="#F3165C" transform="translate(222,170)"/>
<path d="M0 0 C1.21816406 0.03480469 1.21816406 0.03480469 2.4609375 0.0703125 C3.68683594 0.09738281 3.68683594 0.09738281 4.9375 0.125 C5.87722656 0.15980469 5.87722656 0.15980469 6.8359375 0.1953125 C6.8359375 4.30120671 5.41108619 6.0633749 2.8359375 9.1953125 C0.2109375 9.6953125 0.2109375 9.6953125 -2.1640625 9.1953125 C-4.1640625 7.1953125 -4.1640625 7.1953125 -4.4140625 4.6953125 C-4.08960287 1.45071617 -3.32727288 0.30029539 0 0 Z " fill="#F8286A" transform="translate(258.1640625,172.8046875)"/>
<path d="M0 0 C0.33 0.66 0.66 1.32 1 2 C-0.98 2.66 -2.96 3.32 -5 4 C-5.33 3.67 -5.66 3.34 -6 3 C-9.63194641 2.80850919 -9.63194641 2.80850919 -13 4 C-13 3.34 -13 2.68 -13 2 C-14.65 2 -16.3 2 -18 2 C-18 7.28 -18 12.56 -18 18 C-16.35 18 -14.7 18 -13 18 C-13 14.37 -13 10.74 -13 7 C-12.67 7 -12.34 7 -12 7 C-12 10.96 -12 14.92 -12 19 C-14.31 19 -16.62 19 -19 19 C-19.33 17.68 -19.66 16.36 -20 15 C-20.99 15.495 -20.99 15.495 -22 16 C-22 12.04 -22 8.08 -22 4 C-21.01 4.495 -21.01 4.495 -20 5 C-19.67 3.68 -19.34 2.36 -19 1 C-17.31970703 1.01740234 -17.31970703 1.01740234 -15.60546875 1.03515625 C-14.13281417 1.04453622 -12.66015778 1.0536362 -11.1875 1.0625 C-10.44951172 1.07087891 -9.71152344 1.07925781 -8.95117188 1.08789062 C-5.70077932 1.10259828 -3.10595105 1.03531702 0 0 Z " fill="#E91659" transform="translate(379,171)"/>
<path d="M0 0 C1.8125 1.4375 1.8125 1.4375 3 3 C3 3.66 3 4.32 3 5 C1.68 5 0.36 5 -1 5 C-1.33 5.66 -1.66 6.32 -2 7 C-0.02 7 1.96 7 4 7 C4 7.66 4 8.32 4 9 C0.7 9.66 -2.6 10.32 -6 11 C-6.33 7.37 -6.66 3.74 -7 0 C-4.26634878 -1.36682561 -2.89333621 -0.84683011 0 0 Z " fill="#FA155E" transform="translate(193,299)"/>
<path d="M0 0 C4.75 0.75 4.75 0.75 7 3 C7.265625 5.75 7.265625 5.75 7.25 9 C7.25515625 10.0725 7.2603125 11.145 7.265625 12.25 C7 15 7 15 5 17 C4.67 13.04 4.34 9.08 4 5 C2.68 5.33 1.36 5.66 0 6 C-0.33 9.96 -0.66 13.92 -1 18 C-3.32689361 13.34621278 -3.62660409 10.10364489 -3 5 C-1.5 1.9375 -1.5 1.9375 0 0 Z " fill="#29171D" transform="translate(484,298)"/>
<path d="M0 0 C3.33333333 0 6.66666667 0 10 0 C10 1.65 10 3.3 10 5 C8.68 5 7.36 5 6 5 C5.67 8.96 5.34 12.92 5 17 C3.68 17 2.36 17 1 17 C1.01160156 16.02417969 1.02320313 15.04835938 1.03515625 14.04296875 C1.04417969 12.77066406 1.05320313 11.49835938 1.0625 10.1875 C1.07410156 8.92292969 1.08570313 7.65835937 1.09765625 6.35546875 C1.16159116 3.00394763 1.16159116 3.00394763 0 0 Z " fill="#191718" transform="translate(217,298)"/>
<path d="M0 0 C3.40843742 2.88406243 4.86591384 4.3708265 5.8125 8.8125 C5.874375 9.864375 5.93625 10.91625 6 12 C2.04 12 -1.92 12 -6 12 C-6 11.67 -6 11.34 -6 11 C-4.02 11 -2.04 11 0 11 C0 9.35 0 7.7 0 6 C-1.65 6 -3.3 6 -5 6 C-4.67 5.01 -4.34 4.02 -4 3 C-2.68 3.33 -1.36 3.66 0 4 C0 2.68 0 1.36 0 0 Z " fill="#DA1755" transform="translate(456,292)"/>
<path d="M0 0 C1.15234375 2.05078125 1.15234375 2.05078125 2 4 C0.58398286 4.48108275 -0.83284437 4.95978141 -2.25 5.4375 C-3.03890625 5.70433594 -3.8278125 5.97117188 -4.640625 6.24609375 C-6.74821988 6.91954708 -8.84753973 7.49150595 -11 8 C-10.45276317 4.62537285 -9.9451 2.91765 -8 0 C-4.66411172 -1.11196276 -3.29427581 -1.09809194 0 0 Z " fill="#F32768" transform="translate(287,189)"/>
<path d="M0 0 C0 3.3 0 6.6 0 10 C-6.875 9.125 -6.875 9.125 -8 8 C-8.375 5.625 -8.375 5.625 -8 3 C-5.13896577 0.75756777 -3.65923696 0 0 0 Z " fill="#FB296B" transform="translate(118,298)"/>
<path d="M0 0 C1.32 0 2.64 0 4 0 C4 5.61 4 11.22 4 17 C2.68 17 1.36 17 0 17 C0 11.39 0 5.78 0 0 Z " fill="#191919" transform="translate(452,56)"/>
<path d="M0 0 C1.32 0 2.64 0 4 0 C4 5.61 4 11.22 4 17 C2.68 17 1.36 17 0 17 C0 11.39 0 5.78 0 0 Z " fill="#191919" transform="translate(127,56)"/>
<path d="M0 0 C1.32 0 2.64 0 4 0 C4 5.28 4 10.56 4 16 C2.68 16 1.36 16 0 16 C0 10.72 0 5.44 0 0 Z " fill="#1A1A1A" transform="translate(271,415)"/>
<path d="M0 0 C1.32 0 2.64 0 4 0 C4 5.28 4 10.56 4 16 C2.68 16 1.36 16 0 16 C0 10.72 0 5.44 0 0 Z " fill="#1A1A1A" transform="translate(594,173)"/>
<path d="M0 0 C1.32 0 2.64 0 4 0 C4 5.28 4 10.56 4 16 C2.68 16 1.36 16 0 16 C0 10.72 0 5.44 0 0 Z " fill="#1A1A1A" transform="translate(271,173)"/>
<path d="M0 0 C0.66 0 1.32 0 2 0 C3.33583899 4.84241633 4.25328119 8.93437617 4 14 C1.69 14 -0.62 14 -3 14 C-2.01 9.38 -1.02 4.76 0 0 Z " fill="#0B0004" transform="translate(381,298)"/>
<path d="M0 0 C3.53571429 0.53571429 3.53571429 0.53571429 5 2 C5.1875 4.9375 5.1875 4.9375 5 8 C4.34 8.66 3.68 9.32 3 10 C-0.53571429 9.46428571 -0.53571429 9.46428571 -2 8 C-2.1875 5.0625 -2.1875 5.0625 -2 2 C-1.34 1.34 -0.68 0.68 0 0 Z " fill="#010101" transform="translate(24,176)"/>
<path d="M0 0 C3.53571429 0.53571429 3.53571429 0.53571429 5 2 C4.71269945 4.33944736 4.38063221 6.6739143 4 9 C2.125 9.625 2.125 9.625 0 10 C-2 8 -2 8 -2.25 5 C-2 2 -2 2 0 0 Z " fill="#F5165D" transform="translate(349,176)"/>
<path d="M0 0 C1.65 0.33 3.3 0.66 5 1 C5.625 3.8125 5.625 3.8125 6 7 C5.01 8.485 5.01 8.485 4 10 C0.125 9.125 0.125 9.125 -1 8 C-1.23529412 2.47058824 -1.23529412 2.47058824 0 0 Z " fill="#010101" transform="translate(529,60)"/>
<path d="M0 0 C1.65 0.33 3.3 0.66 5 1 C5.80967438 3.91482778 6.21845993 5.46113217 5.0625 8.3125 C4.5365625 9.1478125 4.5365625 9.1478125 4 10 C0.125 9.125 0.125 9.125 -1 8 C-1.23529412 2.47058824 -1.23529412 2.47058824 0 0 Z " fill="#010101" transform="translate(204,60)"/>
<path d="M0 0 C2.125 0.375 2.125 0.375 4 1 C4.80967438 3.91482778 5.21845993 5.46113217 4.0625 8.3125 C3.5365625 9.1478125 3.5365625 9.1478125 3 10 C-0.875 9.125 -0.875 9.125 -2 8 C-2.1875 5.0625 -2.1875 5.0625 -2 2 C-1.34 1.34 -0.68 0.68 0 0 Z " fill="#010101" transform="translate(349,418)"/>
<path d="M0 0 C4 1 4 1 5 2 C5.07271741 4.35313555 5.08370868 6.70833668 5.0625 9.0625 C5.05347656 10.35285156 5.04445313 11.64320313 5.03515625 12.97265625 C5.02355469 13.97167969 5.01195312 14.97070312 5 16 C4.01 16 3.02 16 2 16 C1.34 10.72 0.68 5.44 0 0 Z " fill="#1A1919" transform="translate(380,173)"/>
<path d="M0 0 C0 0.99 0 1.98 0 3 C-1.32 3.33 -2.64 3.66 -4 4 C-4 4.66 -4 5.32 -4 6 C-3.34 6.33 -2.68 6.66 -2 7 C-2 7.99 -2 8.98 -2 10 C-7.875 9.125 -7.875 9.125 -9 8 C-9.375 5.625 -9.375 5.625 -9 3 C-5.72821183 0.36439287 -4.27931853 0 0 0 Z " fill="#FD2D6F" transform="translate(444,298)"/>
<path d="M0 0 C2.125 0.375 2.125 0.375 4 1 C4.625 3.875 4.625 3.875 5 7 C4.34 7.66 3.68 8.32 3 9 C0.375 8.625 0.375 8.625 -2 8 C-2.125 5.125 -2.125 5.125 -2 2 C-1.34 1.34 -0.68 0.68 0 0 Z " fill="#010101" transform="translate(285,418)"/>
<path d="M0 0 C2.125 0.375 2.125 0.375 4 1 C5.125 6.75 5.125 6.75 4 9 C2.33388095 9.042721 0.66617115 9.04063832 -1 9 C-2 8 -2 8 -2.1875 5.0625 C-2 2 -2 2 0 0 Z " fill="#010101" transform="translate(285,176)"/>
<path d="M0 0 C3.53571429 0.53571429 3.53571429 0.53571429 5 2 C5.1875 4.4375 5.1875 4.4375 5 7 C4.34 7.66 3.68 8.32 3 9 C1.68 9 0.36 9 -1 9 C-1.625 5.625 -1.625 5.625 -2 2 C-1.34 1.34 -0.68 0.68 0 0 Z " fill="#010101" transform="translate(141,60)"/>
<path d="M0 0 C0.66 0 1.32 0 2 0 C1.67 0.99 1.34 1.98 1 3 C0.76744974 5.1843371 0.76744974 5.1843371 0.75 7.5 C0.72421875 8.2734375 0.6984375 9.046875 0.671875 9.84375 C1.08127753 12.5341095 1.94450709 13.2837632 4 15 C4.66 15.66 5.32 16.32 6 17 C5 18 5 18 2.4375 18.0625 C1.633125 18.041875 0.82875 18.02125 0 18 C-1.95218444 14.72311897 -2.27063566 12.22930273 -2.25 8.4375 C-2.25515625 7.48746094 -2.2603125 6.53742188 -2.265625 5.55859375 C-2 3 -2 3 0 0 Z " fill="#060102" transform="translate(199,299)"/>
<path d="M0 0 C1.8125 1.25 1.8125 1.25 3 3 C3 4.32 3 5.64 3 7 C-0.8063457 6.32829194 -4.35206816 5.27253436 -8 4 C-7.67 3.01 -7.34 2.02 -7 1 C-4.45132831 -0.27433584 -2.82594567 -0.27570202 0 0 Z " fill="#EB1458" transform="translate(270,189)"/>
<path d="M0 0 C0.33 0 0.66 0 1 0 C2.30433619 5.93627021 2.11086318 11.83332252 2.0625 17.875 C2.05798828 18.94492188 2.05347656 20.01484375 2.04882812 21.1171875 C2.03709749 23.74484986 2.02068228 26.37239538 2 29 C1.67 29 1.34 29 1 29 C1 24.38 1 19.76 1 15 C0.34 15 -0.32 15 -1 15 C-1.02703381 13.06257659 -1.04641125 11.12504521 -1.0625 9.1875 C-1.07410156 8.10855469 -1.08570313 7.02960938 -1.09765625 5.91796875 C-1 3 -1 3 0 0 Z " fill="#C2184E" transform="translate(380,175)"/>
<path d="M0 0 C3 1 3 1 4 3 C4.07092842 5.2072923 4.08415025 7.41667452 4.0625 9.625 C4.05347656 10.81351562 4.04445313 12.00203125 4.03515625 13.2265625 C4.02355469 14.14179688 4.01195312 15.05703125 4 16 C2.68 16 1.36 16 0 16 C0 10.72 0 5.44 0 0 Z " fill="#FA2B6C" transform="translate(490,299)"/>
<path d="M0 0 C2.125 0.375 2.125 0.375 4 1 C4 3.31 4 5.62 4 8 C2.34385343 8.38218767 0.67542976 8.71395102 -1 9 C-2 8 -2 8 -2.1875 5.0625 C-2 2 -2 2 0 0 Z " fill="#000000" transform="translate(466,60)"/>
<path d="M0 0 C0.33 0.66 0.66 1.32 1 2 C2.36125 1.505 2.36125 1.505 3.75 1 C7 0 7 0 11 0 C9.25 4.875 9.25 4.875 7 6 C4.6670134 6.04022391 2.33293334 6.04320247 0 6 C0 4.02 0 2.04 0 0 Z " fill="#FC2C6E" transform="translate(185,309)"/>
<path d="M0 0 C2 0.875 2 0.875 4 2 C4.66 2.33 5.32 2.66 6 3 C6 4.65 6 6.3 6 8 C4.68 8.33 3.36 8.66 2 9 C-2 4.375 -2 4.375 -2 1 C-1.34 0.67 -0.68 0.34 0 0 Z " fill="#0A0305" transform="translate(332,176)"/>
<path d="M0 0 C2.0625 0.4375 2.0625 0.4375 4 1 C4.33 3.64 4.66 6.28 5 9 C3.33388095 9.042721 1.66617115 9.04063832 0 9 C-1 8 -1 8 -1.125 4.5 C-1 1 -1 1 0 0 Z " fill="#F3165C" transform="translate(529,302)"/>
<path d="M0 0 C3 3 3 3 3.29296875 6.13671875 C3.25816406 7.30847656 3.22335938 8.48023438 3.1875 9.6875 C3.16042969 10.86699219 3.13335937 12.04648437 3.10546875 13.26171875 C3.07066406 14.16535156 3.03585938 15.06898438 3 16 C2.01 16 1.02 16 0 16 C0 10.72 0 5.44 0 0 Z " fill="#181818" transform="translate(166,299)"/>
<path d="M0 0 C2 2 2 2 2.1953125 3.9453125 C2.13020833 5.96354167 2.06510417 7.98177083 2 10 C2.53625 9.67 3.0725 9.34 3.625 9 C6.5391061 7.77300796 8.86867708 7.85766714 12 8 C11.67 9.65 11.34 11.3 11 13 C10.67 12.34 10.34 11.68 10 11 C10.33 10.34 10.66 9.68 11 9 C9.9171875 9.495 9.9171875 9.495 8.8125 10 C5.96520153 11.01237279 3.97703092 11 1 11 C0.34 11.66 -0.32 12.32 -1 13 C-1.07654536 8.48382401 -1.10228696 4.40914783 0 0 Z " fill="#DB1C59" transform="translate(185,300)"/>
<path d="M0 0 C2.475 0.99 2.475 0.99 5 2 C5 3.98 5 5.96 5 8 C4.01 8.33 3.02 8.66 2 9 C1.67 9.66 1.34 10.32 1 11 C-0.20272819 8.59454362 -0.10071472 7.05003047 -0.0625 4.375 C-0.05347656 3.55773437 -0.04445313 2.74046875 -0.03515625 1.8984375 C-0.02355469 1.27195312 -0.01195312 0.64546875 0 0 Z " fill="#191718" transform="translate(443,305)"/>
<path d="M0 0 C1.98 0 3.96 0 6 0 C5.32902328 4.19360449 3.1441606 7.40334352 1 11 C0.67 11 0.34 11 0 11 C0 7.37 0 3.74 0 0 Z " fill="#F82C6D" transform="translate(70,293)"/>
<path d="M0 0 C2.625 0.375 2.625 0.375 5 1 C4.67 3.31 4.34 5.62 4 8 C1.5625 7.25 1.5625 7.25 -1 6 C-1.9375 4 -1.9375 4 -2 2 C-1.34 1.34 -0.68 0.68 0 0 Z " fill="#DF1756" transform="translate(498,309)"/>
<path d="M0 0 C1.32 0 2.64 0 4 0 C4 3.3 4 6.6 4 10 C2.68 10 1.36 10 0 10 C0 6.7 0 3.4 0 0 Z " fill="#010000" transform="translate(204,346)"/>
<path d="M0 0 C0.804375 0.495 0.804375 0.495 1.625 1 C4.5391061 2.22699204 6.86867708 2.14233286 10 2 C10.33 2.99 10.66 3.98 11 5 C10 6 10 6 6.125 6.25 C2.29674306 6.2225573 2.29674306 6.2225573 0 4.5 C-0.33 4.005 -0.66 3.51 -1 3 C-0.67 2.01 -0.34 1.02 0 0 Z " fill="#1E181A" transform="translate(461,315)"/>
<path d="M0 0 C0.66 0.33 1.32 0.66 2 1 C1.34 5.29 0.68 9.58 0 14 C-0.99 13.34 -1.98 12.68 -3 12 C-3.66666667 5.11111111 -3.66666667 5.11111111 -1.5 1.5 C-1.005 1.005 -0.51 0.51 0 0 Z " fill="#1E191B" transform="translate(184,299)"/>
<path d="M0 0 C1.32 0 2.64 0 4 0 C3.34 5.28 2.68 10.56 2 16 C1.34 16 0.68 16 0 16 C0 10.72 0 5.44 0 0 Z " fill="#FC2C6E" transform="translate(479,298)"/>
<path d="M0 0 C1.485 0.99 1.485 0.99 3 2 C3.66 1.67 4.32 1.34 5 1 C5 2.65 5 4.3 5 6 C4.01 6 3.02 6 2 6 C2 6.99 2 7.98 2 9 C1.34 9 0.68 9 0 9 C0 10.65 0 12.3 0 14 C-0.33 14 -0.66 14 -1 14 C-1.02705729 12.22925083 -1.04642195 10.45838289 -1.0625 8.6875 C-1.07410156 7.70136719 -1.08570313 6.71523438 -1.09765625 5.69921875 C-1 3 -1 3 0 0 Z " fill="#D81F5A" transform="translate(430,299)"/>
<path d="M0 0 C1.32 0 2.64 0 4 0 C3.67 2.97 3.34 5.94 3 9 C1.68 8.67 0.36 8.34 -1 8 C-1.04241723 5.66705225 -1.04092937 3.33297433 -1 1 C-0.67 0.67 -0.34 0.34 0 0 Z " fill="#010101" transform="translate(465,302)"/>
<path d="M0 0 C4 2 4 2 5 3.875 C5 6 5 6 3.125 8.25 C1 10 1 10 0 10 C0 6.7 0 3.4 0 0 Z " fill="#181818" transform="translate(119,305)"/>
<path d="M0 0 C1.8125 1.4375 1.8125 1.4375 3 3 C3 3.66 3 4.32 3 5 C-2 4 -2 4 -7 3 C-7 2.01 -7 1.02 -7 0 C-4.26634878 -1.36682561 -2.89333621 -0.84683011 0 0 Z " fill="#FD2C6E" transform="translate(193,299)"/>
<path d="M0 0 C2.87579981 4.31369972 4 7.80734761 4 13 C2.68 13 1.36 13 0 13 C0 8.71 0 4.42 0 0 Z " fill="#E51F5E" transform="translate(394,303)"/>
<path d="M0 0 C1.09898702 3.29696105 0.87124444 4.40494903 0.0625 7.6875 C-0.22947266 8.89986328 -0.22947266 8.89986328 -0.52734375 10.13671875 C-0.68332031 10.75160156 -0.83929687 11.36648438 -1 12 C-1.66 12 -2.32 12 -3 12 C-3.33 8.37 -3.66 4.74 -4 1 C-2.68 1.33 -1.36 1.66 0 2 C0 1.34 0 0.68 0 0 Z " fill="#32121C" transform="translate(536,297)"/>
<path d="M0 0 C-0.625 2.4375 -0.625 2.4375 -2 5 C-5.125 5.8125 -5.125 5.8125 -8 6 C-8 4.68 -8 3.36 -8 2 C-4.91190305 0.23537317 -3.76687864 0 0 0 Z " fill="#FD2C6E" transform="translate(521,309)"/>
<path d="M0 0 C1.32 0 2.64 0 4 0 C4 2.64 4 5.28 4 8 C2.68 8 1.36 8 0 8 C0 5.36 0 2.72 0 0 Z " fill="#1E1A1B" transform="translate(452,304)"/>
<path d="M0 0 C3.62528568 -0.20140476 5.86501708 0.14223235 9 2 C9 2.99 9 3.98 9 5 C5.625 4.75 5.625 4.75 2 4 C0.5625 1.9375 0.5625 1.9375 0 0 Z " fill="#FD2C6E" transform="translate(434,310)"/>
<path d="M0 0 C0.99 0.99 1.98 1.98 3 3 C2.67 3.33 2.34 3.66 2 4 C1.76572222 6.01594582 1.58663876 8.038474 1.4375 10.0625 C1.31181641 11.71958984 1.31181641 11.71958984 1.18359375 13.41015625 C1.12300781 14.26480469 1.06242187 15.11945313 1 16 C-0.72327319 13.0098145 -1.25156728 10.87966022 -1.1875 7.4375 C-1.18105469 6.67308594 -1.17460937 5.90867187 -1.16796875 5.12109375 C-1 3 -1 3 0 0 Z " fill="#351A23" transform="translate(482,300)"/>
<path d="M0 0 C0.99 0.33 1.98 0.66 3 1 C3 1.66 3 2.32 3 3 C4.98 3 6.96 3 9 3 C9 3.66 9 4.32 9 5 C6.03 5.66 3.06 6.32 0 7 C0 4.69 0 2.38 0 0 Z " fill="#FD155F" transform="translate(513,303)"/>
<path d="M0 0 C3.62528568 -0.20140476 5.86501708 0.14223235 9 2 C9 2.99 9 3.98 9 5 C5.625 4.75 5.625 4.75 2 4 C0.5625 1.9375 0.5625 1.9375 0 0 Z " fill="#FE2D6F" transform="translate(109,310)"/>
<path d="M0 0 C1.98 0.99 1.98 0.99 4 2 C4 3.65 4 5.3 4 7 C2.02 7.99 2.02 7.99 0 9 C0 6.03 0 3.06 0 0 Z " fill="#020202" transform="translate(142,302)"/>
<path d="M0 0 C2.78211944 0.37596209 4.5879284 0.67318459 6.8125 2.4375 C8 4 8 4 8 6 C5.23723823 5.47731534 2.6739124 4.89130413 0 4 C0 2.68 0 1.36 0 0 Z " fill="#FD2C6E" transform="translate(513,298)"/>
<path d="M0 0 C0.33 0 0.66 0 1 0 C1 3.3 1 6.6 1 10 C2.65 10 4.3 10 6 10 C5.01 10.33 4.02 10.66 3 11 C3 11.66 3 12.32 3 13 C1.02 13 -0.96 13 -3 13 C-2.67 12.01 -2.34 11.02 -2 10 C-1.34 10 -0.68 10 0 10 C0 6.7 0 3.4 0 0 Z " fill="#D41854" transform="translate(99,292)"/>
<path d="M0 0 C2.64 0 5.28 0 8 0 C8 1.32 8 2.64 8 4 C5.69 4 3.38 4 1 4 C0.67 2.68 0.34 1.36 0 0 Z " fill="#F21F62" transform="translate(449,312)"/>
<path d="M0 0 C0.33 0 0.66 0 1 0 C1 3.63 1 7.26 1 11 C-0.98 11 -2.96 11 -5 11 C-5 9.68 -5 8.36 -5 7 C-3.68 7.33 -2.36 7.66 -1 8 C-0.67 5.36 -0.34 2.72 0 0 Z " fill="#431322" transform="translate(105,291)"/>
<path d="M0 0 C1.50156874 3.00313748 1.09281204 5.79067522 1.0625 9.125 C1.05347656 10.40632812 1.04445313 11.68765625 1.03515625 13.0078125 C1.02355469 13.99523437 1.01195312 14.98265625 1 16 C0.34 16 -0.32 16 -1 16 C-1 12.7 -1 9.4 -1 6 C-1.66 6 -2.32 6 -3 6 C-2.625 3.5625 -2.625 3.5625 -2 1 C-1.34 0.67 -0.68 0.34 0 0 Z " fill="#4B1224" transform="translate(320,183)"/>
<path d="M0 0 C1.7074998 1.28062485 3.37373596 2.61767557 5 4 C5 4.66 5 5.32 5 6 C6.32 5.67 7.64 5.34 9 5 C9 5.66 9 6.32 9 7 C5.625 7.1875 5.625 7.1875 2 7 C0 4 0 4 0 0 Z " fill="#E21A59" transform="translate(329,179)"/>
<path d="M0 0 C2.31 0 4.62 0 7 0 C7 1.32 7 2.64 7 4 C2.25 3.125 2.25 3.125 0 2 C0 1.34 0 0.68 0 0 Z " fill="#040203" transform="translate(462,314)"/>
<path d="M0 0 C0.66 0 1.32 0 2 0 C2 4.95 2 9.9 2 15 C1.67 15 1.34 15 1 15 C1 12.36 1 9.72 1 7 C0.34 7 -0.32 7 -1 7 C-0.67 4.69 -0.34 2.38 0 0 Z " fill="#5A182C" transform="translate(543,307)"/>
<path d="M0 0 C0.66 0 1.32 0 2 0 C2 2.97 2 5.94 2 9 C1.01 8.67 0.02 8.34 -1 8 C-1.04241723 5.66705225 -1.04092937 3.33297433 -1 1 C-0.67 0.67 -0.34 0.34 0 0 Z " fill="#F1165C" transform="translate(140,302)"/>
<path d="M0 0 C0 1.65 0 3.3 0 5 C-2.66666667 6.33333333 -5.33333333 7.66666667 -8 9 C-6.78641212 6.02119338 -3.58154637 0 0 0 Z " fill="#221016" transform="translate(275,165)"/>
<path d="M0 0 C4.75 0.875 4.75 0.875 7 2 C7 2.99 7 3.98 7 5 C4.625 4.75 4.625 4.75 2 4 C0.6875 1.9375 0.6875 1.9375 0 0 Z " fill="#FC2B6D" transform="translate(135,316)"/>
<path d="M0 0 C2.64 0 5.28 0 8 0 C8 0.66 8 1.32 8 2 C5 4 5 4 2.875 3.8125 C2.25625 3.544375 1.6375 3.27625 1 3 C0.67 2.01 0.34 1.02 0 0 Z " fill="#020202" transform="translate(421,308)"/>
<path d="M0 0 C1.98 0.495 1.98 0.495 4 1 C3.67 4.3 3.34 7.6 3 11 C2.01 10.67 1.02 10.34 0 10 C0.66 10 1.32 10 2 10 C2 8.02 2 6.04 2 4 C1.01 3.67 0.02 3.34 -1 3 C-0.67 2.01 -0.34 1.02 0 0 Z " fill="#E31B5B" transform="translate(440,301)"/>
<path d="M0 0 C0.66 0 1.32 0 2 0 C2 2.97 2 5.94 2 9 C1.01 8.67 0.02 8.34 -1 8 C-1.125 2.25 -1.125 2.25 0 0 Z " fill="#010101" transform="translate(204,302)"/>
<path d="M0 0 C2.39763185 2.39763185 2.34280586 3.33273498 2.625 6.625 C2.69976562 7.44226563 2.77453125 8.25953125 2.8515625 9.1015625 C2.90054688 9.72804687 2.94953125 10.35453125 3 11 C2.01 11 1.02 11 0 11 C0 7.37 0 3.74 0 0 Z " fill="#EF175B" transform="translate(232,173)"/>
<path d="M0 0 C2.125 0.375 2.125 0.375 4 1 C3.67 2.32 3.34 3.64 3 5 C1.68 5 0.36 5 -1 5 C-1.33 4.01 -1.66 3.02 -2 2 C-1.34 1.34 -0.68 0.68 0 0 Z " fill="#161616" transform="translate(174,310)"/>
<path d="M0 0 C0.66 0 1.32 0 2 0 C3.125 6.75 3.125 6.75 2 9 C1.34 9 0.68 9 0 9 C0 6.03 0 3.06 0 0 Z " fill="#F3175D" transform="translate(207,302)"/>
<path d="M0 0 C0.12375 0.61875 0.2475 1.2375 0.375 1.875 C0.87197356 4.19120832 0.87197356 4.19120832 3 6 C0 8 0 8 -3 8 C-2.45276317 4.62537285 -1.9451 2.91765 0 0 Z " fill="#C5124B" transform="translate(279,189)"/>
<path d="M0 0 C2.125 0.375 2.125 0.375 4 1 C3.67 2.32 3.34 3.64 3 5 C1.68 5 0.36 5 -1 5 C-1.33 4.01 -1.66 3.02 -2 2 C-1.34 1.34 -0.68 0.68 0 0 Z " fill="#151515" transform="translate(174,68)"/>
<path d="M0 0 C2.97 0.33 5.94 0.66 9 1 C9 1.66 9 2.32 9 3 C6.36 3 3.72 3 1 3 C0.67 2.01 0.34 1.02 0 0 Z " fill="#F82064" transform="translate(97,309)"/>
<path d="M0 0 C0.99 0 1.98 0 3 0 C3.33 2.31 3.66 4.62 4 7 C2.68 7 1.36 7 0 7 C0 4.69 0 2.38 0 0 Z " fill="#010101" transform="translate(456,304)"/>
<path d="M0 0 C0.66 0.33 1.32 0.66 2 1 C1.67 3.64 1.34 6.28 1 9 C0.67 8.01 0.34 7.02 0 6 C-0.66 6 -1.32 6 -2 6 C-2 4.68 -2 3.36 -2 2 C-1.34 2 -0.68 2 0 2 C0 1.34 0 0.68 0 0 Z " fill="#E81457" transform="translate(340,177)"/>
<path d="M0 0 C0.99 0.33 1.98 0.66 3 1 C2.34 1.66 1.68 2.32 1 3 C0.53709779 5.66242821 0.53709779 5.66242821 0.375 8.625 C0.30023437 9.62789063 0.22546875 10.63078125 0.1484375 11.6640625 C0.09945312 12.43492187 0.05046875 13.20578125 0 14 C-0.99 13.67 -1.98 13.34 -3 13 C-2.34 13 -1.68 13 -1 13 C-1.01160156 12.14535156 -1.02320313 11.29070312 -1.03515625 10.41015625 C-1.04417969 9.30542969 -1.05320312 8.20070313 -1.0625 7.0625 C-1.07410156 5.96035156 -1.08570313 4.85820312 -1.09765625 3.72265625 C-1 1 -1 1 0 0 Z " fill="#EB1458" transform="translate(548,302)"/>
<path d="M0 0 C1.65 0 3.3 0 5 0 C5.33 1.32 5.66 2.64 6 4 C4.68 4 3.36 4 2 4 C1.34 2.68 0.68 1.36 0 0 Z " fill="#F62A6B" transform="translate(253,184)"/>
<path d="M0 0 C1.32 0.66 2.64 1.32 4 2 C3.67 2.99 3.34 3.98 3 5 C1.68 5 0.36 5 -1 5 C-0.67 3.35 -0.34 1.7 0 0 Z " fill="#171717" transform="translate(318,426)"/>
<path d="M0 0 C2.375 0.3125 2.375 0.3125 5 1 C5.66 1.99 6.32 2.98 7 4 C5.02 4 3.04 4 1 4 C0.67 2.68 0.34 1.36 0 0 Z " fill="#DB1756" transform="translate(282,188)"/>
<path d="M0 0 C0.66 0 1.32 0 2 0 C1.34 3.3 0.68 6.6 0 10 C-2 7 -2 7 -1.6875 3.875 C-1 1 -1 1 0 0 Z " fill="#17070C" transform="translate(199,299)"/>
<path d="M0 0 C0.99 0 1.98 0 3 0 C2.34 2.97 1.68 5.94 1 9 C0.67 9 0.34 9 0 9 C0 6.03 0 3.06 0 0 Z " fill="#110207" transform="translate(219,171)"/>
<path d="M0 0 C0.99 0.33 1.98 0.66 3 1 C3 2.32 3 3.64 3 5 C1.68 5 0.36 5 -1 5 C-0.67 3.35 -0.34 1.7 0 0 Z " fill="#181818" transform="translate(499,68)"/>
<path d="M0 0 C1.32 0 2.64 0 4 0 C4 1.32 4 2.64 4 4 C2.35 3.67 0.7 3.34 -1 3 C-0.67 2.01 -0.34 1.02 0 0 Z " fill="#171717" transform="translate(452,50)"/>
<path d="M0 0 C0.99 0 1.98 0 3 0 C2.67 1.65 2.34 3.3 2 5 C1.01 4.67 0.02 4.34 -1 4 C-0.67 2.68 -0.34 1.36 0 0 Z " fill="#171717" transform="translate(272,408)"/>
<path d="M0 0 C0.99 0.33 1.98 0.66 3 1 C3 2.32 3 3.64 3 5 C1.68 4.67 0.36 4.34 -1 4 C-0.67 2.68 -0.34 1.36 0 0 Z " fill="#FE2D6F" transform="translate(499,310)"/>
<path d="M0 0 C1.32 0.66 2.64 1.32 4 2 C3.01 3.485 3.01 3.485 2 5 C1.01 4.67 0.02 4.34 -1 4 C-0.67 2.68 -0.34 1.36 0 0 Z " fill="#171717" transform="translate(595,166)"/>
</svg>
